G75*
%MOIN*%
%OFA0B0*%
%FSLAX25Y25*%
%IPPOS*%
%LPD*%
%AMOC8*
5,1,8,0,0,1.08239X$1,22.5*
%
%ADD10C,0.00000*%
%ADD11C,0.03175*%
%ADD12C,0.02781*%
%ADD13C,0.07500*%
%ADD14C,0.10500*%
%ADD15C,0.02584*%
%ADD16C,0.06000*%
%ADD17C,0.01600*%
%ADD18C,0.02600*%
%ADD19C,0.02400*%
D10*
X0007800Y0006800D02*
X0007800Y0549201D01*
X0727821Y0549201D01*
X0727821Y0006800D01*
X0007800Y0006800D01*
D11*
X0663576Y0444800D03*
X0668300Y0444800D03*
X0673024Y0444800D03*
D12*
X0670808Y0476485D03*
X0670808Y0479556D03*
X0670808Y0482627D03*
X0670808Y0485698D03*
X0670808Y0488769D03*
X0670808Y0491839D03*
X0673957Y0491839D03*
X0666792Y0491839D03*
X0666792Y0488769D03*
X0666792Y0485698D03*
X0666792Y0482627D03*
X0666792Y0479556D03*
X0666792Y0476485D03*
X0663643Y0491839D03*
X0438375Y0402869D03*
X0436800Y0400900D03*
X0435225Y0402869D03*
X0435225Y0398931D03*
X0438375Y0398931D03*
X0285375Y0400931D03*
X0283800Y0402900D03*
X0285375Y0404869D03*
X0282225Y0404869D03*
X0282225Y0400931D03*
X0267475Y0519731D03*
X0265900Y0521700D03*
X0264325Y0523669D03*
X0267475Y0523669D03*
X0264325Y0519731D03*
X0132375Y0519831D03*
X0130800Y0521800D03*
X0129225Y0519831D03*
X0129225Y0523769D03*
X0132375Y0523769D03*
X0126375Y0406869D03*
X0124800Y0404900D03*
X0123225Y0402931D03*
X0126375Y0402931D03*
X0123225Y0406869D03*
X0196125Y0262069D03*
X0197700Y0260100D03*
X0196125Y0258131D03*
X0199275Y0258131D03*
X0199275Y0262069D03*
X0363125Y0260869D03*
X0364700Y0258900D03*
X0366275Y0260869D03*
X0366275Y0256931D03*
X0363125Y0256931D03*
X0386125Y0134669D03*
X0387700Y0132700D03*
X0389275Y0130731D03*
X0386125Y0130731D03*
X0389275Y0134669D03*
X0548525Y0130169D03*
X0550100Y0128200D03*
X0551675Y0130169D03*
X0551675Y0126231D03*
X0548525Y0126231D03*
X0550075Y0257131D03*
X0548500Y0259100D03*
X0550075Y0261069D03*
X0546925Y0261069D03*
X0546925Y0257131D03*
X0223175Y0136269D03*
X0221600Y0134300D03*
X0220025Y0132331D03*
X0223175Y0132331D03*
X0220025Y0136269D03*
X0404025Y0519531D03*
X0405600Y0521500D03*
X0407175Y0519531D03*
X0407175Y0523469D03*
X0404025Y0523469D03*
D13*
X0407800Y0459800D03*
X0461800Y0459800D03*
X0514800Y0459800D03*
X0512800Y0529800D03*
X0529300Y0529800D03*
X0699800Y0378800D03*
X0578800Y0331900D03*
X0509800Y0331900D03*
X0441800Y0331900D03*
X0355800Y0332900D03*
X0284800Y0332900D03*
X0198800Y0332900D03*
X0127800Y0332900D03*
X0043900Y0338000D03*
X0046300Y0261800D03*
X0143800Y0201800D03*
X0228800Y0201800D03*
X0295800Y0201800D03*
X0391800Y0201800D03*
X0462800Y0201800D03*
X0563800Y0201800D03*
X0662300Y0201800D03*
X0649300Y0068500D03*
X0555800Y0050000D03*
X0471800Y0078500D03*
X0394800Y0050000D03*
X0307800Y0078500D03*
X0232800Y0050000D03*
X0143800Y0078500D03*
X0043000Y0055900D03*
X0047300Y0459800D03*
X0126800Y0459800D03*
X0181800Y0459800D03*
X0267800Y0459800D03*
X0323800Y0459800D03*
D14*
X0313761Y0449761D03*
X0333839Y0449761D03*
X0333839Y0469839D03*
X0313761Y0469839D03*
X0277839Y0469839D03*
X0257761Y0469839D03*
X0257761Y0449761D03*
X0277839Y0449761D03*
X0191839Y0449761D03*
X0171761Y0449761D03*
X0171761Y0469839D03*
X0191839Y0469839D03*
X0136839Y0469839D03*
X0116761Y0469839D03*
X0116761Y0449761D03*
X0136839Y0449761D03*
X0057339Y0449761D03*
X0037261Y0449761D03*
X0037261Y0469839D03*
X0057339Y0469839D03*
X0053939Y0348039D03*
X0033861Y0348039D03*
X0033861Y0327961D03*
X0053939Y0327961D03*
X0117761Y0322861D03*
X0137839Y0322861D03*
X0137839Y0342939D03*
X0117761Y0342939D03*
X0188761Y0342939D03*
X0188761Y0322861D03*
X0208839Y0322861D03*
X0208839Y0342939D03*
X0274761Y0342939D03*
X0274761Y0322861D03*
X0294839Y0322861D03*
X0294839Y0342939D03*
X0345761Y0342939D03*
X0345761Y0322861D03*
X0365839Y0322861D03*
X0365839Y0342939D03*
X0431761Y0341939D03*
X0451839Y0341939D03*
X0451839Y0321861D03*
X0431761Y0321861D03*
X0499761Y0321861D03*
X0519839Y0321861D03*
X0519839Y0341939D03*
X0499761Y0341939D03*
X0568761Y0341939D03*
X0588839Y0341939D03*
X0588839Y0321861D03*
X0568761Y0321861D03*
X0689761Y0368761D03*
X0689761Y0388839D03*
X0709839Y0388839D03*
X0709839Y0368761D03*
X0524839Y0449761D03*
X0504761Y0449761D03*
X0504761Y0469839D03*
X0524839Y0469839D03*
X0471839Y0469839D03*
X0451761Y0469839D03*
X0451761Y0449761D03*
X0471839Y0449761D03*
X0417839Y0449761D03*
X0397761Y0449761D03*
X0397761Y0469839D03*
X0417839Y0469839D03*
X0401839Y0211839D03*
X0381761Y0211839D03*
X0381761Y0191761D03*
X0401839Y0191761D03*
X0452761Y0191761D03*
X0472839Y0191761D03*
X0472839Y0211839D03*
X0452761Y0211839D03*
X0553761Y0211839D03*
X0573839Y0211839D03*
X0573839Y0191761D03*
X0553761Y0191761D03*
X0652261Y0191761D03*
X0672339Y0191761D03*
X0672339Y0211839D03*
X0652261Y0211839D03*
X0481839Y0088539D03*
X0481839Y0068461D03*
X0461761Y0068461D03*
X0461761Y0088539D03*
X0404839Y0060039D03*
X0404839Y0039961D03*
X0384761Y0039961D03*
X0384761Y0060039D03*
X0317839Y0068461D03*
X0317839Y0088539D03*
X0297761Y0088539D03*
X0297761Y0068461D03*
X0242839Y0060039D03*
X0222761Y0060039D03*
X0222761Y0039961D03*
X0242839Y0039961D03*
X0153839Y0068461D03*
X0133761Y0068461D03*
X0133761Y0088539D03*
X0153839Y0088539D03*
X0053039Y0065939D03*
X0053039Y0045861D03*
X0032961Y0045861D03*
X0032961Y0065939D03*
X0133761Y0191761D03*
X0153839Y0191761D03*
X0153839Y0211839D03*
X0133761Y0211839D03*
X0218761Y0211839D03*
X0238839Y0211839D03*
X0238839Y0191761D03*
X0218761Y0191761D03*
X0285761Y0191761D03*
X0305839Y0191761D03*
X0305839Y0211839D03*
X0285761Y0211839D03*
X0056339Y0251761D03*
X0056339Y0271839D03*
X0036261Y0271839D03*
X0036261Y0251761D03*
X0545761Y0060039D03*
X0565839Y0060039D03*
X0565839Y0039961D03*
X0545761Y0039961D03*
X0639261Y0058461D03*
X0659339Y0058461D03*
X0659339Y0078539D03*
X0639261Y0078539D03*
D15*
X0572981Y0124774D03*
X0570619Y0124774D03*
X0571800Y0129400D03*
X0570619Y0134026D03*
X0572981Y0134026D03*
X0530581Y0134126D03*
X0528219Y0134126D03*
X0529400Y0129500D03*
X0528219Y0124874D03*
X0530581Y0124874D03*
X0411281Y0129374D03*
X0408919Y0129374D03*
X0410100Y0134000D03*
X0408919Y0138626D03*
X0411281Y0138626D03*
X0372281Y0140126D03*
X0369919Y0140126D03*
X0371100Y0135500D03*
X0372281Y0130874D03*
X0369919Y0130874D03*
X0243081Y0133574D03*
X0240719Y0133574D03*
X0241900Y0138200D03*
X0240719Y0142826D03*
X0243081Y0142826D03*
X0203981Y0140126D03*
X0201619Y0140126D03*
X0202800Y0135500D03*
X0203981Y0130874D03*
X0201619Y0130874D03*
X0217119Y0256674D03*
X0219481Y0256674D03*
X0218300Y0261300D03*
X0217119Y0265926D03*
X0219481Y0265926D03*
X0178881Y0265726D03*
X0176519Y0265726D03*
X0177700Y0261100D03*
X0178881Y0256474D03*
X0176519Y0256474D03*
X0346519Y0257274D03*
X0348881Y0257274D03*
X0347700Y0261900D03*
X0346519Y0266526D03*
X0348881Y0266526D03*
X0383619Y0264826D03*
X0385981Y0264826D03*
X0384800Y0260200D03*
X0385981Y0255574D03*
X0383619Y0255574D03*
X0528519Y0260274D03*
X0530881Y0260274D03*
X0529700Y0264900D03*
X0528519Y0269526D03*
X0530881Y0269526D03*
X0569519Y0265126D03*
X0571881Y0265126D03*
X0570700Y0260500D03*
X0571881Y0255874D03*
X0569519Y0255874D03*
X0460781Y0400174D03*
X0458419Y0400174D03*
X0459600Y0404800D03*
X0458419Y0409426D03*
X0460781Y0409426D03*
X0418981Y0408526D03*
X0416619Y0408526D03*
X0417800Y0403900D03*
X0418981Y0399274D03*
X0416619Y0399274D03*
X0306481Y0402074D03*
X0304119Y0402074D03*
X0305300Y0406700D03*
X0304119Y0411326D03*
X0306481Y0411326D03*
X0268981Y0409526D03*
X0266619Y0409526D03*
X0267800Y0404900D03*
X0268981Y0400274D03*
X0266619Y0400274D03*
X0145181Y0404174D03*
X0142819Y0404174D03*
X0144000Y0408800D03*
X0142819Y0413426D03*
X0145181Y0413426D03*
X0106981Y0410526D03*
X0104619Y0410526D03*
X0105800Y0405900D03*
X0106981Y0401274D03*
X0104619Y0401274D03*
X0112619Y0519174D03*
X0114981Y0519174D03*
X0113800Y0523800D03*
X0112619Y0528426D03*
X0114981Y0528426D03*
X0146619Y0527926D03*
X0148981Y0527926D03*
X0147800Y0523300D03*
X0146619Y0518674D03*
X0148981Y0518674D03*
X0247719Y0520074D03*
X0250081Y0520074D03*
X0248900Y0524700D03*
X0247719Y0529326D03*
X0250081Y0529326D03*
X0282119Y0527526D03*
X0284481Y0527526D03*
X0283300Y0522900D03*
X0284481Y0518274D03*
X0282119Y0518274D03*
X0387019Y0520674D03*
X0389381Y0520674D03*
X0388200Y0525300D03*
X0387019Y0529926D03*
X0389381Y0529926D03*
X0421919Y0527626D03*
X0424281Y0527626D03*
X0423100Y0523000D03*
X0424281Y0518374D03*
X0421919Y0518374D03*
D16*
X0553800Y0530800D03*
X0563800Y0530800D03*
D17*
X0569600Y0531112D02*
X0725021Y0531112D01*
X0725021Y0532710D02*
X0569287Y0532710D01*
X0569600Y0531954D02*
X0568717Y0534085D01*
X0567085Y0535717D01*
X0564954Y0536600D01*
X0562646Y0536600D01*
X0560515Y0535717D01*
X0558883Y0534085D01*
X0558000Y0531954D01*
X0558000Y0529646D01*
X0558883Y0527515D01*
X0560515Y0525883D01*
X0562646Y0525000D01*
X0564954Y0525000D01*
X0567085Y0525883D01*
X0568717Y0527515D01*
X0569600Y0529646D01*
X0569600Y0531954D01*
X0569545Y0529513D02*
X0725021Y0529513D01*
X0725021Y0527915D02*
X0568883Y0527915D01*
X0567519Y0526316D02*
X0725021Y0526316D01*
X0725021Y0524718D02*
X0533481Y0524718D01*
X0533010Y0524247D02*
X0534853Y0526090D01*
X0535850Y0528497D01*
X0535850Y0531103D01*
X0534853Y0533510D01*
X0533010Y0535353D01*
X0530603Y0536350D01*
X0527997Y0536350D01*
X0525590Y0535353D01*
X0523747Y0533510D01*
X0522750Y0531103D01*
X0522750Y0528497D01*
X0523747Y0526090D01*
X0525590Y0524247D01*
X0527997Y0523250D01*
X0530603Y0523250D01*
X0533010Y0524247D01*
X0534947Y0526316D02*
X0560081Y0526316D01*
X0558717Y0527915D02*
X0535609Y0527915D01*
X0535850Y0529513D02*
X0558055Y0529513D01*
X0558000Y0531112D02*
X0535846Y0531112D01*
X0535184Y0532710D02*
X0558313Y0532710D01*
X0559106Y0534309D02*
X0534054Y0534309D01*
X0531672Y0535907D02*
X0560974Y0535907D01*
X0566626Y0535907D02*
X0725021Y0535907D01*
X0725021Y0534309D02*
X0568494Y0534309D01*
X0526928Y0535907D02*
X0010600Y0535907D01*
X0010600Y0534309D02*
X0524546Y0534309D01*
X0523416Y0532710D02*
X0010600Y0532710D01*
X0010600Y0531112D02*
X0522754Y0531112D01*
X0522750Y0529513D02*
X0010600Y0529513D01*
X0010600Y0527915D02*
X0157616Y0527915D01*
X0157324Y0527622D02*
X0156700Y0526116D01*
X0156700Y0524484D01*
X0157191Y0523300D01*
X0156700Y0522116D01*
X0156700Y0520484D01*
X0157324Y0518978D01*
X0158478Y0517824D01*
X0159140Y0517550D01*
X0158478Y0517276D01*
X0157324Y0516122D01*
X0156700Y0514616D01*
X0156700Y0512984D01*
X0157324Y0511478D01*
X0158478Y0510324D01*
X0159984Y0509700D01*
X0161616Y0509700D01*
X0163122Y0510324D01*
X0164276Y0511478D01*
X0164900Y0512984D01*
X0164900Y0514616D01*
X0164276Y0516122D01*
X0163122Y0517276D01*
X0162460Y0517550D01*
X0163122Y0517824D01*
X0164276Y0518978D01*
X0164900Y0520484D01*
X0164900Y0522116D01*
X0164409Y0523300D01*
X0164900Y0524484D01*
X0164900Y0526116D01*
X0164276Y0527622D01*
X0163122Y0528776D01*
X0161616Y0529400D01*
X0159984Y0529400D01*
X0158478Y0528776D01*
X0157324Y0527622D01*
X0156783Y0526316D02*
X0010600Y0526316D01*
X0010600Y0524718D02*
X0156700Y0524718D01*
X0157116Y0523119D02*
X0010600Y0523119D01*
X0010600Y0521521D02*
X0139069Y0521521D01*
X0138478Y0521276D02*
X0137324Y0520122D01*
X0136700Y0518616D01*
X0136700Y0516984D01*
X0137324Y0515478D01*
X0138478Y0514324D01*
X0139984Y0513700D01*
X0141616Y0513700D01*
X0143122Y0514324D01*
X0144276Y0515478D01*
X0144900Y0516984D01*
X0144900Y0518616D01*
X0144276Y0520122D01*
X0143122Y0521276D01*
X0141616Y0521900D01*
X0139984Y0521900D01*
X0138478Y0521276D01*
X0137241Y0519922D02*
X0010600Y0519922D01*
X0010600Y0518324D02*
X0136700Y0518324D01*
X0136807Y0516725D02*
X0010600Y0516725D01*
X0010600Y0515127D02*
X0137675Y0515127D01*
X0143925Y0515127D02*
X0156912Y0515127D01*
X0156700Y0513528D02*
X0010600Y0513528D01*
X0010600Y0511930D02*
X0157137Y0511930D01*
X0158471Y0510331D02*
X0010600Y0510331D01*
X0010600Y0508733D02*
X0271906Y0508733D01*
X0271984Y0508700D02*
X0273616Y0508700D01*
X0275122Y0509324D01*
X0276276Y0510478D01*
X0276900Y0511984D01*
X0276900Y0513616D01*
X0276276Y0515122D01*
X0275122Y0516276D01*
X0273616Y0516900D01*
X0271984Y0516900D01*
X0270478Y0516276D01*
X0269324Y0515122D01*
X0268700Y0513616D01*
X0268700Y0511984D01*
X0269324Y0510478D01*
X0270478Y0509324D01*
X0271984Y0508700D01*
X0273694Y0508733D02*
X0295906Y0508733D01*
X0295984Y0508700D02*
X0297616Y0508700D01*
X0299122Y0509324D01*
X0300276Y0510478D01*
X0300900Y0511984D01*
X0300900Y0513616D01*
X0300276Y0515122D01*
X0299122Y0516276D01*
X0297616Y0516900D01*
X0297598Y0516900D01*
X0298622Y0517324D01*
X0299776Y0518478D01*
X0300400Y0519984D01*
X0300400Y0521616D01*
X0299909Y0522800D01*
X0300400Y0523984D01*
X0300400Y0525616D01*
X0299776Y0527122D01*
X0298622Y0528276D01*
X0297116Y0528900D01*
X0295484Y0528900D01*
X0293978Y0528276D01*
X0292824Y0527122D01*
X0292200Y0525616D01*
X0292200Y0523984D01*
X0292691Y0522800D01*
X0292200Y0521616D01*
X0292200Y0519984D01*
X0292824Y0518478D01*
X0293978Y0517324D01*
X0295484Y0516700D01*
X0295502Y0516700D01*
X0294478Y0516276D01*
X0293324Y0515122D01*
X0292700Y0513616D01*
X0292700Y0511984D01*
X0293324Y0510478D01*
X0294478Y0509324D01*
X0295984Y0508700D01*
X0297694Y0508733D02*
X0725021Y0508733D01*
X0725021Y0510331D02*
X0438129Y0510331D01*
X0438122Y0510324D02*
X0439276Y0511478D01*
X0439900Y0512984D01*
X0439900Y0514616D01*
X0439276Y0516122D01*
X0438288Y0517110D01*
X0438322Y0517124D01*
X0439476Y0518278D01*
X0440100Y0519784D01*
X0440100Y0521416D01*
X0439527Y0522800D01*
X0440100Y0524184D01*
X0440100Y0525816D01*
X0439476Y0527322D01*
X0438322Y0528476D01*
X0436816Y0529100D01*
X0435184Y0529100D01*
X0433678Y0528476D01*
X0432524Y0527322D01*
X0431900Y0525816D01*
X0431900Y0524184D01*
X0432473Y0522800D01*
X0431900Y0521416D01*
X0431900Y0519784D01*
X0432524Y0518278D01*
X0433512Y0517290D01*
X0433478Y0517276D01*
X0432324Y0516122D01*
X0431700Y0514616D01*
X0431700Y0512984D01*
X0432324Y0511478D01*
X0433478Y0510324D01*
X0434984Y0509700D01*
X0436616Y0509700D01*
X0438122Y0510324D01*
X0439463Y0511930D02*
X0725021Y0511930D01*
X0725021Y0513528D02*
X0439900Y0513528D01*
X0439688Y0515127D02*
X0725021Y0515127D01*
X0725021Y0516725D02*
X0438673Y0516725D01*
X0439495Y0518324D02*
X0725021Y0518324D01*
X0725021Y0519922D02*
X0440100Y0519922D01*
X0440056Y0521521D02*
X0725021Y0521521D01*
X0725021Y0523119D02*
X0439659Y0523119D01*
X0440100Y0524718D02*
X0525119Y0524718D01*
X0523653Y0526316D02*
X0439893Y0526316D01*
X0438884Y0527915D02*
X0522991Y0527915D01*
X0516103Y0466350D02*
X0513497Y0466350D01*
X0511090Y0465353D01*
X0509247Y0463510D01*
X0508250Y0461103D01*
X0508250Y0458497D01*
X0509247Y0456090D01*
X0511090Y0454247D01*
X0513497Y0453250D01*
X0516103Y0453250D01*
X0518510Y0454247D01*
X0520353Y0456090D01*
X0521350Y0458497D01*
X0521350Y0461103D01*
X0520353Y0463510D01*
X0518510Y0465353D01*
X0516103Y0466350D01*
X0517979Y0465573D02*
X0725021Y0465573D01*
X0725021Y0467171D02*
X0010600Y0467171D01*
X0010600Y0465573D02*
X0044121Y0465573D01*
X0043590Y0465353D02*
X0041747Y0463510D01*
X0040750Y0461103D01*
X0040750Y0458497D01*
X0041747Y0456090D01*
X0043590Y0454247D01*
X0045997Y0453250D01*
X0048603Y0453250D01*
X0051010Y0454247D01*
X0052853Y0456090D01*
X0053850Y0458497D01*
X0053850Y0461103D01*
X0052853Y0463510D01*
X0051010Y0465353D01*
X0048603Y0466350D01*
X0045997Y0466350D01*
X0043590Y0465353D01*
X0042211Y0463974D02*
X0010600Y0463974D01*
X0010600Y0462376D02*
X0041277Y0462376D01*
X0040750Y0460777D02*
X0010600Y0460777D01*
X0010600Y0459179D02*
X0040750Y0459179D01*
X0041130Y0457580D02*
X0010600Y0457580D01*
X0010600Y0455982D02*
X0041855Y0455982D01*
X0043454Y0454383D02*
X0010600Y0454383D01*
X0010600Y0452785D02*
X0648184Y0452785D01*
X0648324Y0453122D02*
X0647700Y0451616D01*
X0647700Y0449984D01*
X0648324Y0448478D01*
X0649478Y0447324D01*
X0650984Y0446700D01*
X0652616Y0446700D01*
X0654122Y0447324D01*
X0655276Y0448478D01*
X0655900Y0449984D01*
X0655900Y0450149D01*
X0656984Y0449700D01*
X0658616Y0449700D01*
X0660122Y0450324D01*
X0661276Y0451478D01*
X0661900Y0452984D01*
X0661900Y0454616D01*
X0661276Y0456122D01*
X0660122Y0457276D01*
X0658616Y0457900D01*
X0656984Y0457900D01*
X0655478Y0457276D01*
X0654324Y0456122D01*
X0653700Y0454616D01*
X0653700Y0454451D01*
X0652616Y0454900D01*
X0650984Y0454900D01*
X0649478Y0454276D01*
X0648324Y0453122D01*
X0649737Y0454383D02*
X0518646Y0454383D01*
X0520245Y0455982D02*
X0654266Y0455982D01*
X0656212Y0457580D02*
X0520970Y0457580D01*
X0521350Y0459179D02*
X0725021Y0459179D01*
X0725021Y0460777D02*
X0521350Y0460777D01*
X0520823Y0462376D02*
X0725021Y0462376D01*
X0725021Y0463974D02*
X0519889Y0463974D01*
X0511621Y0465573D02*
X0464979Y0465573D01*
X0465510Y0465353D02*
X0463103Y0466350D01*
X0460497Y0466350D01*
X0458090Y0465353D01*
X0456247Y0463510D01*
X0455250Y0461103D01*
X0455250Y0458497D01*
X0456247Y0456090D01*
X0458090Y0454247D01*
X0460497Y0453250D01*
X0463103Y0453250D01*
X0465510Y0454247D01*
X0467353Y0456090D01*
X0468350Y0458497D01*
X0468350Y0461103D01*
X0467353Y0463510D01*
X0465510Y0465353D01*
X0466889Y0463974D02*
X0509711Y0463974D01*
X0508777Y0462376D02*
X0467823Y0462376D01*
X0468350Y0460777D02*
X0508250Y0460777D01*
X0508250Y0459179D02*
X0468350Y0459179D01*
X0467970Y0457580D02*
X0508630Y0457580D01*
X0509355Y0455982D02*
X0467245Y0455982D01*
X0465646Y0454383D02*
X0510954Y0454383D01*
X0457954Y0454383D02*
X0411646Y0454383D01*
X0411510Y0454247D02*
X0413353Y0456090D01*
X0414350Y0458497D01*
X0414350Y0461103D01*
X0413353Y0463510D01*
X0411510Y0465353D01*
X0409103Y0466350D01*
X0406497Y0466350D01*
X0404090Y0465353D01*
X0402247Y0463510D01*
X0401250Y0461103D01*
X0401250Y0458497D01*
X0402247Y0456090D01*
X0404090Y0454247D01*
X0406497Y0453250D01*
X0409103Y0453250D01*
X0411510Y0454247D01*
X0413245Y0455982D02*
X0456355Y0455982D01*
X0455630Y0457580D02*
X0413970Y0457580D01*
X0414350Y0459179D02*
X0455250Y0459179D01*
X0455250Y0460777D02*
X0414350Y0460777D01*
X0413823Y0462376D02*
X0455777Y0462376D01*
X0456711Y0463974D02*
X0412889Y0463974D01*
X0410979Y0465573D02*
X0458621Y0465573D01*
X0433471Y0510331D02*
X0414329Y0510331D01*
X0414776Y0510778D02*
X0415400Y0512284D01*
X0415400Y0513916D01*
X0414776Y0515422D01*
X0413622Y0516576D01*
X0412116Y0517200D01*
X0410484Y0517200D01*
X0408978Y0516576D01*
X0407824Y0515422D01*
X0407200Y0513916D01*
X0407200Y0512284D01*
X0407824Y0510778D01*
X0408978Y0509624D01*
X0410484Y0509000D01*
X0412116Y0509000D01*
X0413622Y0509624D01*
X0414776Y0510778D01*
X0415253Y0511930D02*
X0432137Y0511930D01*
X0431700Y0513528D02*
X0415400Y0513528D01*
X0414898Y0515127D02*
X0431912Y0515127D01*
X0432927Y0516725D02*
X0413262Y0516725D01*
X0409338Y0516725D02*
X0298038Y0516725D01*
X0299622Y0518324D02*
X0432505Y0518324D01*
X0431900Y0519922D02*
X0300374Y0519922D01*
X0300400Y0521521D02*
X0431944Y0521521D01*
X0432341Y0523119D02*
X0300042Y0523119D01*
X0300400Y0524718D02*
X0431900Y0524718D01*
X0432107Y0526316D02*
X0300110Y0526316D01*
X0298984Y0527915D02*
X0433116Y0527915D01*
X0407702Y0515127D02*
X0300272Y0515127D01*
X0300900Y0513528D02*
X0407200Y0513528D01*
X0407347Y0511930D02*
X0300877Y0511930D01*
X0300129Y0510331D02*
X0408271Y0510331D01*
X0389276Y0499122D02*
X0388122Y0500276D01*
X0386616Y0500900D01*
X0384984Y0500900D01*
X0383478Y0500276D01*
X0382324Y0499122D01*
X0381700Y0497616D01*
X0381700Y0495984D01*
X0382324Y0494478D01*
X0383478Y0493324D01*
X0384984Y0492700D01*
X0386616Y0492700D01*
X0388122Y0493324D01*
X0389276Y0494478D01*
X0389900Y0495984D01*
X0389900Y0497616D01*
X0389276Y0499122D01*
X0389257Y0499141D02*
X0725021Y0499141D01*
X0725021Y0497543D02*
X0389900Y0497543D01*
X0389883Y0495944D02*
X0662603Y0495944D01*
X0662809Y0496030D02*
X0661269Y0495392D01*
X0660090Y0494213D01*
X0659452Y0492673D01*
X0659452Y0491006D01*
X0660090Y0489466D01*
X0661269Y0488287D01*
X0662702Y0487693D01*
X0662892Y0487233D01*
X0662602Y0486531D01*
X0662602Y0484864D01*
X0662892Y0484162D01*
X0662602Y0483460D01*
X0662602Y0481793D01*
X0662892Y0481091D01*
X0662602Y0480389D01*
X0662602Y0478722D01*
X0662892Y0478020D01*
X0662602Y0477319D01*
X0662602Y0475651D01*
X0663240Y0474111D01*
X0664418Y0472932D01*
X0665959Y0472294D01*
X0667626Y0472294D01*
X0668800Y0472781D01*
X0669974Y0472294D01*
X0671641Y0472294D01*
X0673182Y0472932D01*
X0674360Y0474111D01*
X0674998Y0475651D01*
X0674998Y0477319D01*
X0674708Y0478020D01*
X0674998Y0478722D01*
X0674998Y0480389D01*
X0674708Y0481091D01*
X0674998Y0481793D01*
X0674998Y0483460D01*
X0674708Y0484162D01*
X0674998Y0484864D01*
X0674998Y0486531D01*
X0674708Y0487233D01*
X0674898Y0487693D01*
X0676331Y0488287D01*
X0677510Y0489466D01*
X0678148Y0491006D01*
X0678148Y0492673D01*
X0677510Y0494213D01*
X0676331Y0495392D01*
X0674791Y0496030D01*
X0673124Y0496030D01*
X0672383Y0495723D01*
X0671641Y0496030D01*
X0669974Y0496030D01*
X0668800Y0495543D01*
X0667626Y0496030D01*
X0665959Y0496030D01*
X0665217Y0495723D01*
X0664476Y0496030D01*
X0662809Y0496030D01*
X0664682Y0495944D02*
X0665752Y0495944D01*
X0667832Y0495944D02*
X0669768Y0495944D01*
X0671848Y0495944D02*
X0672918Y0495944D01*
X0674997Y0495944D02*
X0725021Y0495944D01*
X0725021Y0494346D02*
X0705692Y0494346D01*
X0706066Y0494191D02*
X0704596Y0494800D01*
X0703004Y0494800D01*
X0701534Y0494191D01*
X0700409Y0493066D01*
X0699800Y0491596D01*
X0699800Y0490004D01*
X0700409Y0488534D01*
X0701534Y0487409D01*
X0703004Y0486800D01*
X0704596Y0486800D01*
X0706066Y0487409D01*
X0707191Y0488534D01*
X0707800Y0490004D01*
X0707800Y0491596D01*
X0707191Y0493066D01*
X0706066Y0494191D01*
X0707323Y0492747D02*
X0725021Y0492747D01*
X0725021Y0491149D02*
X0707800Y0491149D01*
X0707612Y0489550D02*
X0725021Y0489550D01*
X0725021Y0487952D02*
X0706609Y0487952D01*
X0700991Y0487952D02*
X0697278Y0487952D01*
X0697300Y0488004D02*
X0696691Y0486534D01*
X0695566Y0485409D01*
X0694096Y0484800D01*
X0692504Y0484800D01*
X0691034Y0485409D01*
X0689909Y0486534D01*
X0689300Y0488004D01*
X0689300Y0489596D01*
X0689909Y0491066D01*
X0691034Y0492191D01*
X0692504Y0492800D01*
X0694096Y0492800D01*
X0695566Y0492191D01*
X0696691Y0491066D01*
X0697300Y0489596D01*
X0697300Y0488004D01*
X0697300Y0489550D02*
X0699988Y0489550D01*
X0699800Y0491149D02*
X0696608Y0491149D01*
X0694223Y0492747D02*
X0700277Y0492747D01*
X0701908Y0494346D02*
X0677377Y0494346D01*
X0678117Y0492747D02*
X0692377Y0492747D01*
X0689992Y0491149D02*
X0678148Y0491149D01*
X0677545Y0489550D02*
X0689300Y0489550D01*
X0689322Y0487952D02*
X0675523Y0487952D01*
X0674998Y0486353D02*
X0690090Y0486353D01*
X0696510Y0486353D02*
X0725021Y0486353D01*
X0725021Y0484755D02*
X0674953Y0484755D01*
X0674998Y0483156D02*
X0725021Y0483156D01*
X0725021Y0481558D02*
X0674901Y0481558D01*
X0674998Y0479959D02*
X0725021Y0479959D01*
X0725021Y0478361D02*
X0674849Y0478361D01*
X0674998Y0476762D02*
X0725021Y0476762D01*
X0725021Y0475164D02*
X0674796Y0475164D01*
X0673814Y0473565D02*
X0725021Y0473565D01*
X0725021Y0471967D02*
X0659260Y0471967D01*
X0658616Y0471700D02*
X0660122Y0472324D01*
X0661276Y0473478D01*
X0661900Y0474984D01*
X0661900Y0476616D01*
X0661276Y0478122D01*
X0660122Y0479276D01*
X0658616Y0479900D01*
X0656984Y0479900D01*
X0655478Y0479276D01*
X0654324Y0478122D01*
X0653700Y0476616D01*
X0653700Y0474984D01*
X0654324Y0473478D01*
X0655478Y0472324D01*
X0656984Y0471700D01*
X0658616Y0471700D01*
X0656340Y0471967D02*
X0010600Y0471967D01*
X0010600Y0473565D02*
X0654288Y0473565D01*
X0653700Y0475164D02*
X0010600Y0475164D01*
X0010600Y0476762D02*
X0100039Y0476762D01*
X0100478Y0476324D02*
X0101984Y0475700D01*
X0103616Y0475700D01*
X0105122Y0476324D01*
X0106276Y0477478D01*
X0106900Y0478984D01*
X0106900Y0480616D01*
X0106276Y0482122D01*
X0105122Y0483276D01*
X0103616Y0483900D01*
X0101984Y0483900D01*
X0100478Y0483276D01*
X0099324Y0482122D01*
X0098700Y0480616D01*
X0098700Y0478984D01*
X0099324Y0477478D01*
X0100478Y0476324D01*
X0098958Y0478361D02*
X0010600Y0478361D01*
X0010600Y0479959D02*
X0098700Y0479959D01*
X0099090Y0481558D02*
X0010600Y0481558D01*
X0010600Y0483156D02*
X0100358Y0483156D01*
X0105242Y0483156D02*
X0241700Y0483156D01*
X0241700Y0483616D02*
X0241700Y0481984D01*
X0242324Y0480478D01*
X0243478Y0479324D01*
X0244984Y0478700D01*
X0246616Y0478700D01*
X0248122Y0479324D01*
X0249276Y0480478D01*
X0249900Y0481984D01*
X0249900Y0483616D01*
X0249276Y0485122D01*
X0248122Y0486276D01*
X0246616Y0486900D01*
X0244984Y0486900D01*
X0243478Y0486276D01*
X0242324Y0485122D01*
X0241700Y0483616D01*
X0242172Y0484755D02*
X0010600Y0484755D01*
X0010600Y0486353D02*
X0243665Y0486353D01*
X0247935Y0486353D02*
X0662602Y0486353D01*
X0662647Y0484755D02*
X0249428Y0484755D01*
X0249900Y0483156D02*
X0380358Y0483156D01*
X0380478Y0483276D02*
X0379324Y0482122D01*
X0378700Y0480616D01*
X0378700Y0478984D01*
X0379324Y0477478D01*
X0380478Y0476324D01*
X0381984Y0475700D01*
X0383616Y0475700D01*
X0385122Y0476324D01*
X0386276Y0477478D01*
X0386900Y0478984D01*
X0386900Y0480616D01*
X0386276Y0482122D01*
X0385122Y0483276D01*
X0383616Y0483900D01*
X0381984Y0483900D01*
X0380478Y0483276D01*
X0379090Y0481558D02*
X0249723Y0481558D01*
X0248758Y0479959D02*
X0378700Y0479959D01*
X0378958Y0478361D02*
X0106642Y0478361D01*
X0106900Y0479959D02*
X0242842Y0479959D01*
X0241877Y0481558D02*
X0106510Y0481558D01*
X0105561Y0476762D02*
X0380039Y0476762D01*
X0385561Y0476762D02*
X0653761Y0476762D01*
X0654563Y0478361D02*
X0386642Y0478361D01*
X0386900Y0479959D02*
X0662602Y0479959D01*
X0662699Y0481558D02*
X0386510Y0481558D01*
X0385242Y0483156D02*
X0662602Y0483156D01*
X0662751Y0478361D02*
X0661037Y0478361D01*
X0661839Y0476762D02*
X0662602Y0476762D01*
X0662804Y0475164D02*
X0661900Y0475164D01*
X0661312Y0473565D02*
X0663786Y0473565D01*
X0662077Y0487952D02*
X0010600Y0487952D01*
X0010600Y0489550D02*
X0660055Y0489550D01*
X0659452Y0491149D02*
X0110947Y0491149D01*
X0111276Y0491478D02*
X0111900Y0492984D01*
X0111900Y0494616D01*
X0111276Y0496122D01*
X0110122Y0497276D01*
X0108616Y0497900D01*
X0106984Y0497900D01*
X0105478Y0497276D01*
X0104324Y0496122D01*
X0103700Y0494616D01*
X0103700Y0492984D01*
X0104324Y0491478D01*
X0105478Y0490324D01*
X0106984Y0489700D01*
X0108616Y0489700D01*
X0110122Y0490324D01*
X0111276Y0491478D01*
X0111802Y0492747D02*
X0244870Y0492747D01*
X0244984Y0492700D02*
X0246616Y0492700D01*
X0248122Y0493324D01*
X0249276Y0494478D01*
X0249900Y0495984D01*
X0249900Y0497616D01*
X0249276Y0499122D01*
X0248122Y0500276D01*
X0246616Y0500900D01*
X0244984Y0500900D01*
X0243478Y0500276D01*
X0242324Y0499122D01*
X0241700Y0497616D01*
X0241700Y0495984D01*
X0242324Y0494478D01*
X0243478Y0493324D01*
X0244984Y0492700D01*
X0246730Y0492747D02*
X0384870Y0492747D01*
X0386730Y0492747D02*
X0659483Y0492747D01*
X0660223Y0494346D02*
X0389144Y0494346D01*
X0382456Y0494346D02*
X0249144Y0494346D01*
X0249883Y0495944D02*
X0381717Y0495944D01*
X0381700Y0497543D02*
X0249900Y0497543D01*
X0249257Y0499141D02*
X0382343Y0499141D01*
X0384598Y0500740D02*
X0247002Y0500740D01*
X0244598Y0500740D02*
X0010600Y0500740D01*
X0010600Y0502339D02*
X0725021Y0502339D01*
X0725021Y0503937D02*
X0010600Y0503937D01*
X0010600Y0505536D02*
X0725021Y0505536D01*
X0725021Y0507134D02*
X0010600Y0507134D01*
X0010600Y0499141D02*
X0242343Y0499141D01*
X0241700Y0497543D02*
X0109477Y0497543D01*
X0111350Y0495944D02*
X0241717Y0495944D01*
X0242456Y0494346D02*
X0111900Y0494346D01*
X0106123Y0497543D02*
X0010600Y0497543D01*
X0010600Y0495944D02*
X0104250Y0495944D01*
X0103700Y0494346D02*
X0010600Y0494346D01*
X0010600Y0492747D02*
X0103798Y0492747D01*
X0104653Y0491149D02*
X0010600Y0491149D01*
X0010600Y0470368D02*
X0725021Y0470368D01*
X0725021Y0468770D02*
X0010600Y0468770D01*
X0010600Y0451186D02*
X0647700Y0451186D01*
X0647864Y0449588D02*
X0010600Y0449588D01*
X0010600Y0447989D02*
X0648813Y0447989D01*
X0654787Y0447989D02*
X0725021Y0447989D01*
X0725021Y0446391D02*
X0010600Y0446391D01*
X0010600Y0444792D02*
X0725021Y0444792D01*
X0725021Y0443194D02*
X0010600Y0443194D01*
X0010600Y0441595D02*
X0654797Y0441595D01*
X0654324Y0441122D02*
X0653700Y0439616D01*
X0653700Y0437984D01*
X0654191Y0436800D01*
X0653700Y0435616D01*
X0653700Y0433984D01*
X0654191Y0432800D01*
X0653700Y0431616D01*
X0653700Y0429984D01*
X0654324Y0428478D01*
X0655478Y0427324D01*
X0656984Y0426700D01*
X0658616Y0426700D01*
X0659800Y0427191D01*
X0660984Y0426700D01*
X0662616Y0426700D01*
X0663800Y0427191D01*
X0664984Y0426700D01*
X0666616Y0426700D01*
X0667800Y0427191D01*
X0668984Y0426700D01*
X0670616Y0426700D01*
X0671800Y0427191D01*
X0672984Y0426700D01*
X0674616Y0426700D01*
X0675800Y0427191D01*
X0676984Y0426700D01*
X0678616Y0426700D01*
X0679800Y0427191D01*
X0680984Y0426700D01*
X0682616Y0426700D01*
X0683800Y0427191D01*
X0684984Y0426700D01*
X0686616Y0426700D01*
X0687800Y0427191D01*
X0688984Y0426700D01*
X0690616Y0426700D01*
X0691800Y0427191D01*
X0692984Y0426700D01*
X0694616Y0426700D01*
X0696122Y0427324D01*
X0697276Y0428478D01*
X0697900Y0429984D01*
X0697900Y0431616D01*
X0697276Y0433122D01*
X0696122Y0434276D01*
X0694616Y0434900D01*
X0692984Y0434900D01*
X0691900Y0434451D01*
X0691900Y0435232D01*
X0692122Y0435324D01*
X0693276Y0436478D01*
X0693900Y0437984D01*
X0693900Y0439616D01*
X0693276Y0441122D01*
X0692122Y0442276D01*
X0690616Y0442900D01*
X0688984Y0442900D01*
X0687800Y0442409D01*
X0686616Y0442900D01*
X0684984Y0442900D01*
X0683800Y0442409D01*
X0682616Y0442900D01*
X0680984Y0442900D01*
X0679800Y0442409D01*
X0678616Y0442900D01*
X0676984Y0442900D01*
X0675800Y0442409D01*
X0674616Y0442900D01*
X0672984Y0442900D01*
X0671478Y0442276D01*
X0670324Y0441122D01*
X0669700Y0439616D01*
X0669700Y0437984D01*
X0670324Y0436478D01*
X0671478Y0435324D01*
X0671700Y0435232D01*
X0671700Y0434451D01*
X0670616Y0434900D01*
X0668984Y0434900D01*
X0667800Y0434409D01*
X0666616Y0434900D01*
X0665900Y0434900D01*
X0665900Y0435616D01*
X0665409Y0436800D01*
X0665900Y0437984D01*
X0665900Y0439616D01*
X0665276Y0441122D01*
X0664122Y0442276D01*
X0662616Y0442900D01*
X0660984Y0442900D01*
X0659800Y0442409D01*
X0658616Y0442900D01*
X0656984Y0442900D01*
X0655478Y0442276D01*
X0654324Y0441122D01*
X0653858Y0439997D02*
X0010600Y0439997D01*
X0010600Y0438398D02*
X0653700Y0438398D01*
X0654190Y0436800D02*
X0010600Y0436800D01*
X0010600Y0435201D02*
X0653700Y0435201D01*
X0653858Y0433603D02*
X0010600Y0433603D01*
X0010600Y0432004D02*
X0653861Y0432004D01*
X0653700Y0430405D02*
X0010600Y0430405D01*
X0010600Y0428807D02*
X0654188Y0428807D01*
X0655757Y0427208D02*
X0010600Y0427208D01*
X0010600Y0425610D02*
X0725021Y0425610D01*
X0725021Y0427208D02*
X0695843Y0427208D01*
X0697412Y0428807D02*
X0725021Y0428807D01*
X0725021Y0430405D02*
X0697900Y0430405D01*
X0697739Y0432004D02*
X0725021Y0432004D01*
X0725021Y0433603D02*
X0696796Y0433603D01*
X0693409Y0436800D02*
X0725021Y0436800D01*
X0725021Y0438398D02*
X0693900Y0438398D01*
X0693742Y0439997D02*
X0725021Y0439997D01*
X0725021Y0441595D02*
X0692803Y0441595D01*
X0691900Y0435201D02*
X0725021Y0435201D01*
X0725021Y0424011D02*
X0010600Y0424011D01*
X0010600Y0422413D02*
X0725021Y0422413D01*
X0725021Y0420814D02*
X0010600Y0420814D01*
X0010600Y0419216D02*
X0725021Y0419216D01*
X0725021Y0417617D02*
X0010600Y0417617D01*
X0010600Y0416019D02*
X0725021Y0416019D01*
X0725021Y0414420D02*
X0158291Y0414420D01*
X0157616Y0414700D02*
X0155984Y0414700D01*
X0154478Y0414076D01*
X0153324Y0412922D01*
X0152700Y0411416D01*
X0152700Y0409784D01*
X0153199Y0408579D01*
X0152800Y0407616D01*
X0152800Y0405984D01*
X0153424Y0404478D01*
X0154578Y0403324D01*
X0154586Y0403321D01*
X0154478Y0403276D01*
X0153324Y0402122D01*
X0152700Y0400616D01*
X0152700Y0398984D01*
X0153324Y0397478D01*
X0154478Y0396324D01*
X0155984Y0395700D01*
X0157616Y0395700D01*
X0159122Y0396324D01*
X0160276Y0397478D01*
X0160900Y0398984D01*
X0160900Y0400616D01*
X0160276Y0402122D01*
X0159122Y0403276D01*
X0159114Y0403279D01*
X0159222Y0403324D01*
X0160376Y0404478D01*
X0161000Y0405984D01*
X0161000Y0407616D01*
X0160501Y0408821D01*
X0160900Y0409784D01*
X0160900Y0411416D01*
X0160276Y0412922D01*
X0159122Y0414076D01*
X0157616Y0414700D01*
X0155309Y0414420D02*
X0010600Y0414420D01*
X0010600Y0412822D02*
X0153283Y0412822D01*
X0152700Y0411223D02*
X0010600Y0411223D01*
X0010600Y0409625D02*
X0152766Y0409625D01*
X0152970Y0408026D02*
X0010600Y0408026D01*
X0010600Y0406428D02*
X0152800Y0406428D01*
X0153278Y0404829D02*
X0135786Y0404829D01*
X0135616Y0404900D02*
X0133984Y0404900D01*
X0132478Y0404276D01*
X0131324Y0403122D01*
X0130700Y0401616D01*
X0130700Y0399984D01*
X0131324Y0398478D01*
X0132478Y0397324D01*
X0133984Y0396700D01*
X0135616Y0396700D01*
X0137122Y0397324D01*
X0138276Y0398478D01*
X0138900Y0399984D01*
X0138900Y0401616D01*
X0138276Y0403122D01*
X0137122Y0404276D01*
X0135616Y0404900D01*
X0133814Y0404829D02*
X0010600Y0404829D01*
X0010600Y0403231D02*
X0131433Y0403231D01*
X0130707Y0401632D02*
X0010600Y0401632D01*
X0010600Y0400034D02*
X0130700Y0400034D01*
X0131366Y0398435D02*
X0010600Y0398435D01*
X0010600Y0396837D02*
X0133654Y0396837D01*
X0135946Y0396837D02*
X0153965Y0396837D01*
X0152927Y0398435D02*
X0138234Y0398435D01*
X0138900Y0400034D02*
X0152700Y0400034D01*
X0153121Y0401632D02*
X0138893Y0401632D01*
X0138167Y0403231D02*
X0154433Y0403231D01*
X0159167Y0403231D02*
X0468400Y0403231D01*
X0468400Y0403616D02*
X0468400Y0401984D01*
X0469024Y0400478D01*
X0470178Y0399324D01*
X0470424Y0399222D01*
X0469324Y0398122D01*
X0468700Y0396616D01*
X0468700Y0394984D01*
X0469324Y0393478D01*
X0470478Y0392324D01*
X0471984Y0391700D01*
X0473616Y0391700D01*
X0475122Y0392324D01*
X0476276Y0393478D01*
X0476900Y0394984D01*
X0476900Y0396616D01*
X0476276Y0398122D01*
X0475122Y0399276D01*
X0474876Y0399378D01*
X0475976Y0400478D01*
X0476600Y0401984D01*
X0476600Y0403616D01*
X0476109Y0404800D01*
X0476600Y0405984D01*
X0476600Y0407616D01*
X0475976Y0409122D01*
X0474822Y0410276D01*
X0473316Y0410900D01*
X0471684Y0410900D01*
X0470178Y0410276D01*
X0469024Y0409122D01*
X0468400Y0407616D01*
X0468400Y0405984D01*
X0468891Y0404800D01*
X0468400Y0403616D01*
X0468878Y0404829D02*
X0319569Y0404829D01*
X0319016Y0404600D02*
X0320522Y0405224D01*
X0321676Y0406378D01*
X0322300Y0407884D01*
X0322300Y0409516D01*
X0321676Y0411022D01*
X0320522Y0412176D01*
X0319016Y0412800D01*
X0317384Y0412800D01*
X0315878Y0412176D01*
X0314724Y0411022D01*
X0314100Y0409516D01*
X0314100Y0407884D01*
X0314724Y0406378D01*
X0315878Y0405224D01*
X0317384Y0404600D01*
X0319016Y0404600D01*
X0316831Y0404829D02*
X0160522Y0404829D01*
X0161000Y0406428D02*
X0314703Y0406428D01*
X0314100Y0408026D02*
X0160830Y0408026D01*
X0160834Y0409625D02*
X0314145Y0409625D01*
X0314925Y0411223D02*
X0160900Y0411223D01*
X0160317Y0412822D02*
X0725021Y0412822D01*
X0725021Y0411223D02*
X0321475Y0411223D01*
X0322255Y0409625D02*
X0469527Y0409625D01*
X0468570Y0408026D02*
X0322300Y0408026D01*
X0321697Y0406428D02*
X0468400Y0406428D01*
X0468546Y0401632D02*
X0318766Y0401632D01*
X0319276Y0401122D02*
X0318122Y0402276D01*
X0316616Y0402900D01*
X0314984Y0402900D01*
X0313478Y0402276D01*
X0312324Y0401122D01*
X0311700Y0399616D01*
X0311700Y0397984D01*
X0312324Y0396478D01*
X0313478Y0395324D01*
X0314984Y0394700D01*
X0316616Y0394700D01*
X0318122Y0395324D01*
X0319276Y0396478D01*
X0319900Y0397984D01*
X0319900Y0399616D01*
X0319276Y0401122D01*
X0319727Y0400034D02*
X0446236Y0400034D01*
X0446478Y0400276D02*
X0445324Y0399122D01*
X0444700Y0397616D01*
X0444700Y0395984D01*
X0445324Y0394478D01*
X0446478Y0393324D01*
X0447984Y0392700D01*
X0449616Y0392700D01*
X0451122Y0393324D01*
X0452276Y0394478D01*
X0452900Y0395984D01*
X0452900Y0397616D01*
X0452276Y0399122D01*
X0451122Y0400276D01*
X0449616Y0400900D01*
X0447984Y0400900D01*
X0446478Y0400276D01*
X0445040Y0398435D02*
X0319900Y0398435D01*
X0319425Y0396837D02*
X0444700Y0396837D01*
X0445009Y0395238D02*
X0317915Y0395238D01*
X0313685Y0395238D02*
X0297701Y0395238D01*
X0297676Y0395178D02*
X0298300Y0396684D01*
X0298300Y0398316D01*
X0297676Y0399822D01*
X0296522Y0400976D01*
X0295016Y0401600D01*
X0293384Y0401600D01*
X0291878Y0400976D01*
X0290724Y0399822D01*
X0290100Y0398316D01*
X0290100Y0396684D01*
X0290724Y0395178D01*
X0291878Y0394024D01*
X0293384Y0393400D01*
X0295016Y0393400D01*
X0296522Y0394024D01*
X0297676Y0395178D01*
X0298300Y0396837D02*
X0312175Y0396837D01*
X0311700Y0398435D02*
X0298250Y0398435D01*
X0297464Y0400034D02*
X0311873Y0400034D01*
X0312834Y0401632D02*
X0160479Y0401632D01*
X0160900Y0400034D02*
X0290936Y0400034D01*
X0290150Y0398435D02*
X0160673Y0398435D01*
X0159635Y0396837D02*
X0290100Y0396837D01*
X0290699Y0395238D02*
X0010600Y0395238D01*
X0010600Y0393640D02*
X0292806Y0393640D01*
X0295594Y0393640D02*
X0446162Y0393640D01*
X0451438Y0393640D02*
X0469257Y0393640D01*
X0468700Y0395238D02*
X0452591Y0395238D01*
X0452900Y0396837D02*
X0468792Y0396837D01*
X0469637Y0398435D02*
X0452560Y0398435D01*
X0451364Y0400034D02*
X0469468Y0400034D01*
X0475532Y0400034D02*
X0725021Y0400034D01*
X0725021Y0401632D02*
X0476454Y0401632D01*
X0476600Y0403231D02*
X0725021Y0403231D01*
X0725021Y0404829D02*
X0476122Y0404829D01*
X0476600Y0406428D02*
X0725021Y0406428D01*
X0725021Y0408026D02*
X0476430Y0408026D01*
X0475473Y0409625D02*
X0725021Y0409625D01*
X0725021Y0398435D02*
X0475963Y0398435D01*
X0476808Y0396837D02*
X0725021Y0396837D01*
X0725021Y0395238D02*
X0476900Y0395238D01*
X0476343Y0393640D02*
X0725021Y0393640D01*
X0725021Y0392041D02*
X0474439Y0392041D01*
X0471161Y0392041D02*
X0010600Y0392041D01*
X0010600Y0390443D02*
X0725021Y0390443D01*
X0725021Y0388844D02*
X0010600Y0388844D01*
X0010600Y0387246D02*
X0725021Y0387246D01*
X0725021Y0385647D02*
X0010600Y0385647D01*
X0010600Y0384049D02*
X0695786Y0384049D01*
X0696090Y0384353D02*
X0694247Y0382510D01*
X0693250Y0380103D01*
X0693250Y0377497D01*
X0694247Y0375090D01*
X0696090Y0373247D01*
X0698497Y0372250D01*
X0701103Y0372250D01*
X0703510Y0373247D01*
X0705353Y0375090D01*
X0706350Y0377497D01*
X0706350Y0380103D01*
X0705353Y0382510D01*
X0703510Y0384353D01*
X0701103Y0385350D01*
X0698497Y0385350D01*
X0696090Y0384353D01*
X0694222Y0382450D02*
X0010600Y0382450D01*
X0010600Y0380852D02*
X0693560Y0380852D01*
X0693250Y0379253D02*
X0106145Y0379253D01*
X0106122Y0379276D02*
X0104616Y0379900D01*
X0102984Y0379900D01*
X0101478Y0379276D01*
X0100324Y0378122D01*
X0099700Y0376616D01*
X0099700Y0374984D01*
X0100324Y0373478D01*
X0101478Y0372324D01*
X0102984Y0371700D01*
X0104616Y0371700D01*
X0106122Y0372324D01*
X0107276Y0373478D01*
X0107900Y0374984D01*
X0107900Y0376616D01*
X0107276Y0378122D01*
X0106122Y0379276D01*
X0107470Y0377655D02*
X0260856Y0377655D01*
X0260324Y0377122D02*
X0259700Y0375616D01*
X0259700Y0373984D01*
X0260324Y0372478D01*
X0261478Y0371324D01*
X0262984Y0370700D01*
X0264616Y0370700D01*
X0266122Y0371324D01*
X0267276Y0372478D01*
X0267900Y0373984D01*
X0267900Y0375616D01*
X0267276Y0377122D01*
X0266122Y0378276D01*
X0264616Y0378900D01*
X0262984Y0378900D01*
X0261478Y0378276D01*
X0260324Y0377122D01*
X0259883Y0376056D02*
X0107900Y0376056D01*
X0107682Y0374458D02*
X0259700Y0374458D01*
X0260166Y0372859D02*
X0106657Y0372859D01*
X0100943Y0372859D02*
X0010600Y0372859D01*
X0010600Y0371261D02*
X0261631Y0371261D01*
X0265969Y0371261D02*
X0415631Y0371261D01*
X0415478Y0371324D02*
X0416984Y0370700D01*
X0418616Y0370700D01*
X0420122Y0371324D01*
X0421276Y0372478D01*
X0421900Y0373984D01*
X0421900Y0375616D01*
X0421276Y0377122D01*
X0420122Y0378276D01*
X0418616Y0378900D01*
X0416984Y0378900D01*
X0415478Y0378276D01*
X0414324Y0377122D01*
X0413700Y0375616D01*
X0413700Y0373984D01*
X0414324Y0372478D01*
X0415478Y0371324D01*
X0414166Y0372859D02*
X0267434Y0372859D01*
X0267900Y0374458D02*
X0413700Y0374458D01*
X0413883Y0376056D02*
X0267717Y0376056D01*
X0266744Y0377655D02*
X0414856Y0377655D01*
X0420744Y0377655D02*
X0693250Y0377655D01*
X0693847Y0376056D02*
X0421717Y0376056D01*
X0421900Y0374458D02*
X0694879Y0374458D01*
X0697027Y0372859D02*
X0421434Y0372859D01*
X0419969Y0371261D02*
X0725021Y0371261D01*
X0725021Y0372859D02*
X0702573Y0372859D01*
X0704721Y0374458D02*
X0725021Y0374458D01*
X0725021Y0376056D02*
X0705753Y0376056D01*
X0706350Y0377655D02*
X0725021Y0377655D01*
X0725021Y0379253D02*
X0706350Y0379253D01*
X0706040Y0380852D02*
X0725021Y0380852D01*
X0725021Y0382450D02*
X0705378Y0382450D01*
X0703814Y0384049D02*
X0725021Y0384049D01*
X0725021Y0369662D02*
X0010600Y0369662D01*
X0010600Y0368064D02*
X0725021Y0368064D01*
X0725021Y0366465D02*
X0010600Y0366465D01*
X0010600Y0364867D02*
X0097068Y0364867D01*
X0097478Y0365276D02*
X0096324Y0364122D01*
X0095700Y0362616D01*
X0095700Y0360984D01*
X0096324Y0359478D01*
X0097478Y0358324D01*
X0098984Y0357700D01*
X0100616Y0357700D01*
X0102122Y0358324D01*
X0103276Y0359478D01*
X0103900Y0360984D01*
X0103900Y0362616D01*
X0103276Y0364122D01*
X0102122Y0365276D01*
X0100616Y0365900D01*
X0098984Y0365900D01*
X0097478Y0365276D01*
X0095970Y0363268D02*
X0010600Y0363268D01*
X0010600Y0361670D02*
X0095700Y0361670D01*
X0096078Y0360071D02*
X0010600Y0360071D01*
X0010600Y0358472D02*
X0097329Y0358472D01*
X0102271Y0358472D02*
X0255912Y0358472D01*
X0255700Y0358984D02*
X0256324Y0357478D01*
X0257478Y0356324D01*
X0258984Y0355700D01*
X0260616Y0355700D01*
X0262122Y0356324D01*
X0263276Y0357478D01*
X0263900Y0358984D01*
X0263900Y0360616D01*
X0263276Y0362122D01*
X0262122Y0363276D01*
X0260616Y0363900D01*
X0258984Y0363900D01*
X0257478Y0363276D01*
X0256324Y0362122D01*
X0255700Y0360616D01*
X0255700Y0358984D01*
X0255700Y0360071D02*
X0103522Y0360071D01*
X0103900Y0361670D02*
X0256137Y0361670D01*
X0257470Y0363268D02*
X0103630Y0363268D01*
X0102532Y0364867D02*
X0725021Y0364867D01*
X0725021Y0363268D02*
X0416130Y0363268D01*
X0416122Y0363276D02*
X0414616Y0363900D01*
X0412984Y0363900D01*
X0411478Y0363276D01*
X0410324Y0362122D01*
X0409700Y0360616D01*
X0409700Y0358984D01*
X0410324Y0357478D01*
X0411478Y0356324D01*
X0412984Y0355700D01*
X0414616Y0355700D01*
X0416122Y0356324D01*
X0417276Y0357478D01*
X0417900Y0358984D01*
X0417900Y0360616D01*
X0417276Y0362122D01*
X0416122Y0363276D01*
X0417463Y0361670D02*
X0725021Y0361670D01*
X0725021Y0360071D02*
X0417900Y0360071D01*
X0417688Y0358472D02*
X0725021Y0358472D01*
X0725021Y0356874D02*
X0416672Y0356874D01*
X0410928Y0356874D02*
X0262672Y0356874D01*
X0263688Y0358472D02*
X0409912Y0358472D01*
X0409700Y0360071D02*
X0263900Y0360071D01*
X0263463Y0361670D02*
X0410137Y0361670D01*
X0411470Y0363268D02*
X0262130Y0363268D01*
X0256928Y0356874D02*
X0010600Y0356874D01*
X0010600Y0355275D02*
X0725021Y0355275D01*
X0725021Y0353677D02*
X0010600Y0353677D01*
X0010600Y0352078D02*
X0725021Y0352078D01*
X0725021Y0350480D02*
X0010600Y0350480D01*
X0010600Y0348881D02*
X0725021Y0348881D01*
X0725021Y0347283D02*
X0010600Y0347283D01*
X0010600Y0345684D02*
X0725021Y0345684D01*
X0725021Y0344086D02*
X0046323Y0344086D01*
X0045203Y0344550D02*
X0042597Y0344550D01*
X0040190Y0343553D01*
X0038347Y0341710D01*
X0037350Y0339303D01*
X0037350Y0336697D01*
X0038347Y0334290D01*
X0040190Y0332447D01*
X0042597Y0331450D01*
X0045203Y0331450D01*
X0047610Y0332447D01*
X0049453Y0334290D01*
X0050450Y0336697D01*
X0050450Y0339303D01*
X0049453Y0341710D01*
X0047610Y0343553D01*
X0045203Y0344550D01*
X0041477Y0344086D02*
X0010600Y0344086D01*
X0010600Y0342487D02*
X0039124Y0342487D01*
X0038007Y0340889D02*
X0010600Y0340889D01*
X0010600Y0339290D02*
X0037350Y0339290D01*
X0037350Y0337692D02*
X0010600Y0337692D01*
X0010600Y0336093D02*
X0037600Y0336093D01*
X0038262Y0334495D02*
X0010600Y0334495D01*
X0010600Y0332896D02*
X0039741Y0332896D01*
X0048059Y0332896D02*
X0121250Y0332896D01*
X0121250Y0331597D02*
X0122247Y0329190D01*
X0124090Y0327347D01*
X0126497Y0326350D01*
X0129103Y0326350D01*
X0131510Y0327347D01*
X0133353Y0329190D01*
X0134350Y0331597D01*
X0134350Y0334203D01*
X0133353Y0336610D01*
X0131510Y0338453D01*
X0129103Y0339450D01*
X0126497Y0339450D01*
X0124090Y0338453D01*
X0122247Y0336610D01*
X0121250Y0334203D01*
X0121250Y0331597D01*
X0121374Y0331298D02*
X0010600Y0331298D01*
X0010600Y0329699D02*
X0122036Y0329699D01*
X0123336Y0328101D02*
X0010600Y0328101D01*
X0010600Y0326502D02*
X0126130Y0326502D01*
X0129470Y0326502D02*
X0197130Y0326502D01*
X0197497Y0326350D02*
X0200103Y0326350D01*
X0202510Y0327347D01*
X0204353Y0329190D01*
X0205350Y0331597D01*
X0205350Y0334203D01*
X0204353Y0336610D01*
X0202510Y0338453D01*
X0200103Y0339450D01*
X0197497Y0339450D01*
X0195090Y0338453D01*
X0193247Y0336610D01*
X0192250Y0334203D01*
X0192250Y0331597D01*
X0193247Y0329190D01*
X0195090Y0327347D01*
X0197497Y0326350D01*
X0200470Y0326502D02*
X0283130Y0326502D01*
X0283497Y0326350D02*
X0286103Y0326350D01*
X0288510Y0327347D01*
X0290353Y0329190D01*
X0291350Y0331597D01*
X0291350Y0334203D01*
X0290353Y0336610D01*
X0288510Y0338453D01*
X0286103Y0339450D01*
X0283497Y0339450D01*
X0281090Y0338453D01*
X0279247Y0336610D01*
X0278250Y0334203D01*
X0278250Y0331597D01*
X0279247Y0329190D01*
X0281090Y0327347D01*
X0283497Y0326350D01*
X0286470Y0326502D02*
X0354130Y0326502D01*
X0354497Y0326350D02*
X0357103Y0326350D01*
X0359510Y0327347D01*
X0361353Y0329190D01*
X0362350Y0331597D01*
X0362350Y0334203D01*
X0361353Y0336610D01*
X0359510Y0338453D01*
X0357103Y0339450D01*
X0354497Y0339450D01*
X0352090Y0338453D01*
X0350247Y0336610D01*
X0349250Y0334203D01*
X0349250Y0331597D01*
X0350247Y0329190D01*
X0352090Y0327347D01*
X0354497Y0326350D01*
X0357470Y0326502D02*
X0437935Y0326502D01*
X0438090Y0326347D02*
X0440497Y0325350D01*
X0443103Y0325350D01*
X0445510Y0326347D01*
X0447353Y0328190D01*
X0448350Y0330597D01*
X0448350Y0333203D01*
X0447353Y0335610D01*
X0445510Y0337453D01*
X0443103Y0338450D01*
X0440497Y0338450D01*
X0438090Y0337453D01*
X0436247Y0335610D01*
X0435250Y0333203D01*
X0435250Y0330597D01*
X0436247Y0328190D01*
X0438090Y0326347D01*
X0436336Y0328101D02*
X0360264Y0328101D01*
X0361564Y0329699D02*
X0435622Y0329699D01*
X0435250Y0331298D02*
X0362226Y0331298D01*
X0362350Y0332896D02*
X0435250Y0332896D01*
X0435785Y0334495D02*
X0362229Y0334495D01*
X0361567Y0336093D02*
X0436730Y0336093D01*
X0438667Y0337692D02*
X0360271Y0337692D01*
X0357488Y0339290D02*
X0725021Y0339290D01*
X0725021Y0337692D02*
X0581933Y0337692D01*
X0582510Y0337453D02*
X0580103Y0338450D01*
X0577497Y0338450D01*
X0575090Y0337453D01*
X0573247Y0335610D01*
X0572250Y0333203D01*
X0572250Y0330597D01*
X0573247Y0328190D01*
X0575090Y0326347D01*
X0577497Y0325350D01*
X0580103Y0325350D01*
X0582510Y0326347D01*
X0584353Y0328190D01*
X0585350Y0330597D01*
X0585350Y0333203D01*
X0584353Y0335610D01*
X0582510Y0337453D01*
X0583870Y0336093D02*
X0725021Y0336093D01*
X0725021Y0334495D02*
X0584815Y0334495D01*
X0585350Y0332896D02*
X0725021Y0332896D01*
X0725021Y0331298D02*
X0585350Y0331298D01*
X0584978Y0329699D02*
X0725021Y0329699D01*
X0725021Y0328101D02*
X0584264Y0328101D01*
X0582665Y0326502D02*
X0725021Y0326502D01*
X0725021Y0324904D02*
X0010600Y0324904D01*
X0010600Y0323305D02*
X0725021Y0323305D01*
X0725021Y0321707D02*
X0010600Y0321707D01*
X0010600Y0320108D02*
X0725021Y0320108D01*
X0725021Y0318510D02*
X0010600Y0318510D01*
X0010600Y0316911D02*
X0725021Y0316911D01*
X0725021Y0315313D02*
X0010600Y0315313D01*
X0010600Y0313714D02*
X0725021Y0313714D01*
X0725021Y0312116D02*
X0010600Y0312116D01*
X0010600Y0310517D02*
X0725021Y0310517D01*
X0725021Y0308919D02*
X0010600Y0308919D01*
X0010600Y0307320D02*
X0725021Y0307320D01*
X0725021Y0305722D02*
X0010600Y0305722D01*
X0010600Y0304123D02*
X0725021Y0304123D01*
X0725021Y0302525D02*
X0010600Y0302525D01*
X0010600Y0300926D02*
X0725021Y0300926D01*
X0725021Y0299328D02*
X0010600Y0299328D01*
X0010600Y0297729D02*
X0725021Y0297729D01*
X0725021Y0296131D02*
X0010600Y0296131D01*
X0010600Y0294532D02*
X0725021Y0294532D01*
X0725021Y0292934D02*
X0010600Y0292934D01*
X0010600Y0291335D02*
X0725021Y0291335D01*
X0725021Y0289737D02*
X0010600Y0289737D01*
X0010600Y0288138D02*
X0725021Y0288138D01*
X0725021Y0286539D02*
X0010600Y0286539D01*
X0010600Y0284941D02*
X0725021Y0284941D01*
X0725021Y0283342D02*
X0010600Y0283342D01*
X0010600Y0281744D02*
X0725021Y0281744D01*
X0725021Y0280145D02*
X0010600Y0280145D01*
X0010600Y0278547D02*
X0725021Y0278547D01*
X0725021Y0276948D02*
X0010600Y0276948D01*
X0010600Y0275350D02*
X0725021Y0275350D01*
X0725021Y0273751D02*
X0010600Y0273751D01*
X0010600Y0272153D02*
X0725021Y0272153D01*
X0725021Y0270554D02*
X0010600Y0270554D01*
X0010600Y0268956D02*
X0725021Y0268956D01*
X0725021Y0267357D02*
X0232218Y0267357D01*
X0232116Y0267400D02*
X0230484Y0267400D01*
X0228978Y0266776D01*
X0227824Y0265622D01*
X0227200Y0264116D01*
X0227200Y0262484D01*
X0227703Y0261271D01*
X0227100Y0259816D01*
X0227100Y0258184D01*
X0227724Y0256678D01*
X0228302Y0256100D01*
X0227324Y0255122D01*
X0226700Y0253616D01*
X0226700Y0251984D01*
X0227324Y0250478D01*
X0228478Y0249324D01*
X0229984Y0248700D01*
X0231616Y0248700D01*
X0233122Y0249324D01*
X0234276Y0250478D01*
X0234900Y0251984D01*
X0234900Y0253616D01*
X0234276Y0255122D01*
X0233698Y0255700D01*
X0234676Y0256678D01*
X0235300Y0258184D01*
X0235300Y0259816D01*
X0234797Y0261029D01*
X0235400Y0262484D01*
X0235400Y0264116D01*
X0234776Y0265622D01*
X0233622Y0266776D01*
X0232116Y0267400D01*
X0230382Y0267357D02*
X0049999Y0267357D01*
X0050010Y0267353D02*
X0047603Y0268350D01*
X0044997Y0268350D01*
X0042590Y0267353D01*
X0040747Y0265510D01*
X0039750Y0263103D01*
X0039750Y0260497D01*
X0040747Y0258090D01*
X0042590Y0256247D01*
X0044997Y0255250D01*
X0047603Y0255250D01*
X0050010Y0256247D01*
X0051853Y0258090D01*
X0052850Y0260497D01*
X0052850Y0263103D01*
X0051853Y0265510D01*
X0050010Y0267353D01*
X0051604Y0265759D02*
X0227961Y0265759D01*
X0227219Y0264160D02*
X0052412Y0264160D01*
X0052850Y0262562D02*
X0227200Y0262562D01*
X0227575Y0260963D02*
X0052850Y0260963D01*
X0052381Y0259365D02*
X0205692Y0259365D01*
X0205478Y0259276D02*
X0204324Y0258122D01*
X0203700Y0256616D01*
X0203700Y0254984D01*
X0204324Y0253478D01*
X0205478Y0252324D01*
X0206984Y0251700D01*
X0208616Y0251700D01*
X0210122Y0252324D01*
X0211276Y0253478D01*
X0211900Y0254984D01*
X0211900Y0256616D01*
X0211276Y0258122D01*
X0210122Y0259276D01*
X0208616Y0259900D01*
X0206984Y0259900D01*
X0205478Y0259276D01*
X0204177Y0257766D02*
X0051529Y0257766D01*
X0049819Y0256168D02*
X0203700Y0256168D01*
X0203872Y0254569D02*
X0010600Y0254569D01*
X0010600Y0252971D02*
X0204831Y0252971D01*
X0210769Y0252971D02*
X0226700Y0252971D01*
X0226954Y0251372D02*
X0010600Y0251372D01*
X0010600Y0249774D02*
X0228028Y0249774D01*
X0227095Y0254569D02*
X0211728Y0254569D01*
X0211900Y0256168D02*
X0228234Y0256168D01*
X0227273Y0257766D02*
X0211423Y0257766D01*
X0209908Y0259365D02*
X0227100Y0259365D01*
X0234166Y0256168D02*
X0372370Y0256168D01*
X0372324Y0256122D02*
X0371700Y0254616D01*
X0371700Y0252984D01*
X0372324Y0251478D01*
X0373478Y0250324D01*
X0374984Y0249700D01*
X0376616Y0249700D01*
X0378122Y0250324D01*
X0379276Y0251478D01*
X0379900Y0252984D01*
X0379900Y0254616D01*
X0379276Y0256122D01*
X0378122Y0257276D01*
X0376616Y0257900D01*
X0374984Y0257900D01*
X0373478Y0257276D01*
X0372324Y0256122D01*
X0371700Y0254569D02*
X0234505Y0254569D01*
X0234900Y0252971D02*
X0371706Y0252971D01*
X0372429Y0251372D02*
X0234646Y0251372D01*
X0233572Y0249774D02*
X0374806Y0249774D01*
X0376794Y0249774D02*
X0394202Y0249774D01*
X0394324Y0249478D02*
X0395478Y0248324D01*
X0396984Y0247700D01*
X0398616Y0247700D01*
X0400122Y0248324D01*
X0401276Y0249478D01*
X0401900Y0250984D01*
X0401900Y0252616D01*
X0401276Y0254122D01*
X0400348Y0255050D01*
X0401176Y0255878D01*
X0401800Y0257384D01*
X0401800Y0259016D01*
X0401309Y0260200D01*
X0401800Y0261384D01*
X0401800Y0263016D01*
X0401176Y0264522D01*
X0400022Y0265676D01*
X0398516Y0266300D01*
X0396884Y0266300D01*
X0395378Y0265676D01*
X0394224Y0264522D01*
X0393600Y0263016D01*
X0393600Y0261384D01*
X0394091Y0260200D01*
X0393600Y0259016D01*
X0393600Y0257384D01*
X0394224Y0255878D01*
X0395152Y0254950D01*
X0394324Y0254122D01*
X0393700Y0252616D01*
X0393700Y0250984D01*
X0394324Y0249478D01*
X0393700Y0251372D02*
X0379170Y0251372D01*
X0379894Y0252971D02*
X0393847Y0252971D01*
X0394771Y0254569D02*
X0379900Y0254569D01*
X0379230Y0256168D02*
X0394104Y0256168D01*
X0393600Y0257766D02*
X0376938Y0257766D01*
X0374662Y0257766D02*
X0235127Y0257766D01*
X0235300Y0259365D02*
X0393745Y0259365D01*
X0393774Y0260963D02*
X0234825Y0260963D01*
X0235400Y0262562D02*
X0393600Y0262562D01*
X0394074Y0264160D02*
X0235381Y0264160D01*
X0234639Y0265759D02*
X0395578Y0265759D01*
X0399822Y0265759D02*
X0580961Y0265759D01*
X0581478Y0266276D02*
X0580324Y0265122D01*
X0579700Y0263616D01*
X0579700Y0261984D01*
X0580294Y0260550D01*
X0579700Y0259116D01*
X0579700Y0257484D01*
X0580256Y0256142D01*
X0580122Y0256276D01*
X0578616Y0256900D01*
X0576984Y0256900D01*
X0575478Y0256276D01*
X0574324Y0255122D01*
X0573700Y0253616D01*
X0573700Y0251984D01*
X0574324Y0250478D01*
X0575478Y0249324D01*
X0576984Y0248700D01*
X0578616Y0248700D01*
X0580122Y0249324D01*
X0581276Y0250478D01*
X0581900Y0251984D01*
X0581900Y0253616D01*
X0581344Y0254958D01*
X0581478Y0254824D01*
X0582984Y0254200D01*
X0584616Y0254200D01*
X0586122Y0254824D01*
X0587276Y0255978D01*
X0587900Y0257484D01*
X0587900Y0259116D01*
X0587306Y0260550D01*
X0587900Y0261984D01*
X0587900Y0263616D01*
X0587276Y0265122D01*
X0586122Y0266276D01*
X0584616Y0266900D01*
X0582984Y0266900D01*
X0581478Y0266276D01*
X0579926Y0264160D02*
X0401326Y0264160D01*
X0401800Y0262562D02*
X0579700Y0262562D01*
X0580123Y0260963D02*
X0401626Y0260963D01*
X0401655Y0259365D02*
X0579803Y0259365D01*
X0579700Y0257766D02*
X0562632Y0257766D01*
X0562122Y0258276D02*
X0560616Y0258900D01*
X0558984Y0258900D01*
X0557478Y0258276D01*
X0556324Y0257122D01*
X0555700Y0255616D01*
X0555700Y0253984D01*
X0556324Y0252478D01*
X0557478Y0251324D01*
X0558984Y0250700D01*
X0560616Y0250700D01*
X0562122Y0251324D01*
X0563276Y0252478D01*
X0563900Y0253984D01*
X0563900Y0255616D01*
X0563276Y0257122D01*
X0562122Y0258276D01*
X0563671Y0256168D02*
X0575370Y0256168D01*
X0574095Y0254569D02*
X0563900Y0254569D01*
X0563480Y0252971D02*
X0573700Y0252971D01*
X0573954Y0251372D02*
X0562170Y0251372D01*
X0557429Y0251372D02*
X0401900Y0251372D01*
X0401753Y0252971D02*
X0556120Y0252971D01*
X0555700Y0254569D02*
X0400829Y0254569D01*
X0401296Y0256168D02*
X0555929Y0256168D01*
X0556968Y0257766D02*
X0401800Y0257766D01*
X0401398Y0249774D02*
X0575028Y0249774D01*
X0580572Y0249774D02*
X0725021Y0249774D01*
X0725021Y0251372D02*
X0581646Y0251372D01*
X0581900Y0252971D02*
X0725021Y0252971D01*
X0725021Y0254569D02*
X0585507Y0254569D01*
X0587355Y0256168D02*
X0725021Y0256168D01*
X0725021Y0257766D02*
X0587900Y0257766D01*
X0587797Y0259365D02*
X0725021Y0259365D01*
X0725021Y0260963D02*
X0587477Y0260963D01*
X0587900Y0262562D02*
X0725021Y0262562D01*
X0725021Y0264160D02*
X0587674Y0264160D01*
X0586639Y0265759D02*
X0725021Y0265759D01*
X0725021Y0248175D02*
X0399763Y0248175D01*
X0395837Y0248175D02*
X0010600Y0248175D01*
X0010600Y0246577D02*
X0725021Y0246577D01*
X0725021Y0244978D02*
X0010600Y0244978D01*
X0010600Y0243380D02*
X0725021Y0243380D01*
X0725021Y0241781D02*
X0183617Y0241781D01*
X0183122Y0242276D02*
X0181616Y0242900D01*
X0179984Y0242900D01*
X0178478Y0242276D01*
X0177324Y0241122D01*
X0176700Y0239616D01*
X0176700Y0237984D01*
X0177324Y0236478D01*
X0178478Y0235324D01*
X0179984Y0234700D01*
X0181616Y0234700D01*
X0183122Y0235324D01*
X0184276Y0236478D01*
X0184900Y0237984D01*
X0184900Y0239616D01*
X0184276Y0241122D01*
X0183122Y0242276D01*
X0184665Y0240183D02*
X0342994Y0240183D01*
X0342978Y0240176D02*
X0341824Y0239022D01*
X0341200Y0237516D01*
X0341200Y0235884D01*
X0341824Y0234378D01*
X0342978Y0233224D01*
X0344484Y0232600D01*
X0346116Y0232600D01*
X0347622Y0233224D01*
X0348776Y0234378D01*
X0349400Y0235884D01*
X0349400Y0237516D01*
X0348776Y0239022D01*
X0347622Y0240176D01*
X0346116Y0240800D01*
X0344484Y0240800D01*
X0342978Y0240176D01*
X0341643Y0238584D02*
X0184900Y0238584D01*
X0184486Y0236986D02*
X0341200Y0236986D01*
X0341406Y0235387D02*
X0183185Y0235387D01*
X0178415Y0235387D02*
X0010600Y0235387D01*
X0010600Y0233789D02*
X0342413Y0233789D01*
X0348187Y0233789D02*
X0525013Y0233789D01*
X0525478Y0233324D02*
X0524324Y0234478D01*
X0523700Y0235984D01*
X0523700Y0237616D01*
X0524324Y0239122D01*
X0525478Y0240276D01*
X0526984Y0240900D01*
X0528616Y0240900D01*
X0530122Y0240276D01*
X0531276Y0239122D01*
X0531900Y0237616D01*
X0531900Y0235984D01*
X0531276Y0234478D01*
X0530122Y0233324D01*
X0528616Y0232700D01*
X0526984Y0232700D01*
X0525478Y0233324D01*
X0523947Y0235387D02*
X0349194Y0235387D01*
X0349400Y0236986D02*
X0523700Y0236986D01*
X0524101Y0238584D02*
X0348957Y0238584D01*
X0347606Y0240183D02*
X0525384Y0240183D01*
X0530216Y0240183D02*
X0725021Y0240183D01*
X0725021Y0238584D02*
X0531499Y0238584D01*
X0531900Y0236986D02*
X0725021Y0236986D01*
X0725021Y0235387D02*
X0531653Y0235387D01*
X0530587Y0233789D02*
X0725021Y0233789D01*
X0725021Y0232190D02*
X0010600Y0232190D01*
X0010600Y0230592D02*
X0725021Y0230592D01*
X0725021Y0228993D02*
X0010600Y0228993D01*
X0010600Y0227395D02*
X0725021Y0227395D01*
X0725021Y0225796D02*
X0527866Y0225796D01*
X0527616Y0225900D02*
X0525984Y0225900D01*
X0524478Y0225276D01*
X0523324Y0224122D01*
X0522700Y0222616D01*
X0522700Y0220984D01*
X0523324Y0219478D01*
X0524478Y0218324D01*
X0525984Y0217700D01*
X0527616Y0217700D01*
X0529122Y0218324D01*
X0530276Y0219478D01*
X0530900Y0220984D01*
X0530900Y0222616D01*
X0530276Y0224122D01*
X0529122Y0225276D01*
X0527616Y0225900D01*
X0525734Y0225796D02*
X0010600Y0225796D01*
X0010600Y0224198D02*
X0523399Y0224198D01*
X0522700Y0222599D02*
X0183799Y0222599D01*
X0184276Y0222122D02*
X0183122Y0223276D01*
X0181616Y0223900D01*
X0179984Y0223900D01*
X0178478Y0223276D01*
X0177324Y0222122D01*
X0176700Y0220616D01*
X0176700Y0218984D01*
X0177324Y0217478D01*
X0178478Y0216324D01*
X0179984Y0215700D01*
X0181616Y0215700D01*
X0183122Y0216324D01*
X0184276Y0217478D01*
X0184900Y0218984D01*
X0184900Y0220616D01*
X0184276Y0222122D01*
X0184741Y0221001D02*
X0343202Y0221001D01*
X0343478Y0221276D02*
X0342324Y0220122D01*
X0341700Y0218616D01*
X0341700Y0216984D01*
X0342324Y0215478D01*
X0343478Y0214324D01*
X0344984Y0213700D01*
X0346616Y0213700D01*
X0348122Y0214324D01*
X0349276Y0215478D01*
X0349900Y0216984D01*
X0349900Y0218616D01*
X0349276Y0220122D01*
X0348122Y0221276D01*
X0346616Y0221900D01*
X0344984Y0221900D01*
X0343478Y0221276D01*
X0342026Y0219402D02*
X0184900Y0219402D01*
X0184411Y0217803D02*
X0341700Y0217803D01*
X0342023Y0216205D02*
X0182835Y0216205D01*
X0178765Y0216205D02*
X0010600Y0216205D01*
X0010600Y0217803D02*
X0177189Y0217803D01*
X0176700Y0219402D02*
X0010600Y0219402D01*
X0010600Y0221001D02*
X0176859Y0221001D01*
X0177801Y0222599D02*
X0010600Y0222599D01*
X0010600Y0214606D02*
X0343195Y0214606D01*
X0348405Y0214606D02*
X0725021Y0214606D01*
X0725021Y0213008D02*
X0010600Y0213008D01*
X0010600Y0211409D02*
X0725021Y0211409D01*
X0725021Y0209811D02*
X0010600Y0209811D01*
X0010600Y0208212D02*
X0142165Y0208212D01*
X0142497Y0208350D02*
X0140090Y0207353D01*
X0138247Y0205510D01*
X0137250Y0203103D01*
X0137250Y0200497D01*
X0138247Y0198090D01*
X0140090Y0196247D01*
X0142497Y0195250D01*
X0145103Y0195250D01*
X0147510Y0196247D01*
X0149353Y0198090D01*
X0150350Y0200497D01*
X0150350Y0203103D01*
X0149353Y0205510D01*
X0147510Y0207353D01*
X0145103Y0208350D01*
X0142497Y0208350D01*
X0145435Y0208212D02*
X0227165Y0208212D01*
X0227497Y0208350D02*
X0225090Y0207353D01*
X0223247Y0205510D01*
X0222250Y0203103D01*
X0222250Y0200497D01*
X0223247Y0198090D01*
X0225090Y0196247D01*
X0227497Y0195250D01*
X0230103Y0195250D01*
X0232510Y0196247D01*
X0234353Y0198090D01*
X0235350Y0200497D01*
X0235350Y0203103D01*
X0234353Y0205510D01*
X0232510Y0207353D01*
X0230103Y0208350D01*
X0227497Y0208350D01*
X0230435Y0208212D02*
X0294165Y0208212D01*
X0294497Y0208350D02*
X0292090Y0207353D01*
X0290247Y0205510D01*
X0289250Y0203103D01*
X0289250Y0200497D01*
X0290247Y0198090D01*
X0292090Y0196247D01*
X0294497Y0195250D01*
X0297103Y0195250D01*
X0299510Y0196247D01*
X0301353Y0198090D01*
X0302350Y0200497D01*
X0302350Y0203103D01*
X0301353Y0205510D01*
X0299510Y0207353D01*
X0297103Y0208350D01*
X0294497Y0208350D01*
X0297435Y0208212D02*
X0390165Y0208212D01*
X0390497Y0208350D02*
X0388090Y0207353D01*
X0386247Y0205510D01*
X0385250Y0203103D01*
X0385250Y0200497D01*
X0386247Y0198090D01*
X0388090Y0196247D01*
X0390497Y0195250D01*
X0393103Y0195250D01*
X0395510Y0196247D01*
X0397353Y0198090D01*
X0398350Y0200497D01*
X0398350Y0203103D01*
X0397353Y0205510D01*
X0395510Y0207353D01*
X0393103Y0208350D01*
X0390497Y0208350D01*
X0393435Y0208212D02*
X0461165Y0208212D01*
X0461497Y0208350D02*
X0459090Y0207353D01*
X0457247Y0205510D01*
X0456250Y0203103D01*
X0456250Y0200497D01*
X0457247Y0198090D01*
X0459090Y0196247D01*
X0461497Y0195250D01*
X0464103Y0195250D01*
X0466510Y0196247D01*
X0468353Y0198090D01*
X0469350Y0200497D01*
X0469350Y0203103D01*
X0468353Y0205510D01*
X0466510Y0207353D01*
X0464103Y0208350D01*
X0461497Y0208350D01*
X0464435Y0208212D02*
X0562165Y0208212D01*
X0562497Y0208350D02*
X0560090Y0207353D01*
X0558247Y0205510D01*
X0557250Y0203103D01*
X0557250Y0200497D01*
X0558247Y0198090D01*
X0560090Y0196247D01*
X0562497Y0195250D01*
X0565103Y0195250D01*
X0567510Y0196247D01*
X0569353Y0198090D01*
X0570350Y0200497D01*
X0570350Y0203103D01*
X0569353Y0205510D01*
X0567510Y0207353D01*
X0565103Y0208350D01*
X0562497Y0208350D01*
X0565435Y0208212D02*
X0660665Y0208212D01*
X0660997Y0208350D02*
X0658590Y0207353D01*
X0656747Y0205510D01*
X0655750Y0203103D01*
X0655750Y0200497D01*
X0656747Y0198090D01*
X0658590Y0196247D01*
X0660997Y0195250D01*
X0663603Y0195250D01*
X0666010Y0196247D01*
X0667853Y0198090D01*
X0668850Y0200497D01*
X0668850Y0203103D01*
X0667853Y0205510D01*
X0666010Y0207353D01*
X0663603Y0208350D01*
X0660997Y0208350D01*
X0663935Y0208212D02*
X0725021Y0208212D01*
X0725021Y0206614D02*
X0666749Y0206614D01*
X0668058Y0205015D02*
X0725021Y0205015D01*
X0725021Y0203417D02*
X0668720Y0203417D01*
X0668850Y0201818D02*
X0725021Y0201818D01*
X0725021Y0200220D02*
X0668735Y0200220D01*
X0668073Y0198621D02*
X0725021Y0198621D01*
X0725021Y0197023D02*
X0666786Y0197023D01*
X0664024Y0195424D02*
X0725021Y0195424D01*
X0725021Y0193826D02*
X0010600Y0193826D01*
X0010600Y0195424D02*
X0142076Y0195424D01*
X0139314Y0197023D02*
X0010600Y0197023D01*
X0010600Y0198621D02*
X0138027Y0198621D01*
X0137365Y0200220D02*
X0010600Y0200220D01*
X0010600Y0201818D02*
X0137250Y0201818D01*
X0137380Y0203417D02*
X0010600Y0203417D01*
X0010600Y0205015D02*
X0138042Y0205015D01*
X0139351Y0206614D02*
X0010600Y0206614D01*
X0010600Y0192227D02*
X0725021Y0192227D01*
X0725021Y0190629D02*
X0010600Y0190629D01*
X0010600Y0189030D02*
X0725021Y0189030D01*
X0725021Y0187432D02*
X0010600Y0187432D01*
X0010600Y0185833D02*
X0725021Y0185833D01*
X0725021Y0184235D02*
X0010600Y0184235D01*
X0010600Y0182636D02*
X0725021Y0182636D01*
X0725021Y0181038D02*
X0010600Y0181038D01*
X0010600Y0179439D02*
X0725021Y0179439D01*
X0725021Y0177841D02*
X0010600Y0177841D01*
X0010600Y0176242D02*
X0725021Y0176242D01*
X0725021Y0174644D02*
X0010600Y0174644D01*
X0010600Y0173045D02*
X0725021Y0173045D01*
X0725021Y0171447D02*
X0010600Y0171447D01*
X0010600Y0169848D02*
X0725021Y0169848D01*
X0725021Y0168250D02*
X0010600Y0168250D01*
X0010600Y0166651D02*
X0725021Y0166651D01*
X0725021Y0165053D02*
X0010600Y0165053D01*
X0010600Y0163454D02*
X0725021Y0163454D01*
X0725021Y0161856D02*
X0010600Y0161856D01*
X0010600Y0160257D02*
X0725021Y0160257D01*
X0725021Y0158659D02*
X0010600Y0158659D01*
X0010600Y0157060D02*
X0725021Y0157060D01*
X0725021Y0155462D02*
X0010600Y0155462D01*
X0010600Y0153863D02*
X0725021Y0153863D01*
X0725021Y0152265D02*
X0010600Y0152265D01*
X0010600Y0150666D02*
X0725021Y0150666D01*
X0725021Y0149068D02*
X0010600Y0149068D01*
X0010600Y0147469D02*
X0725021Y0147469D01*
X0725021Y0145870D02*
X0010600Y0145870D01*
X0010600Y0144272D02*
X0253675Y0144272D01*
X0253984Y0144400D02*
X0252478Y0143776D01*
X0251324Y0142622D01*
X0250700Y0141116D01*
X0250700Y0139484D01*
X0251191Y0138300D01*
X0250700Y0137116D01*
X0250700Y0135484D01*
X0250948Y0134885D01*
X0249478Y0134276D01*
X0248324Y0133122D01*
X0247700Y0131616D01*
X0247700Y0129984D01*
X0248324Y0128478D01*
X0249478Y0127324D01*
X0250984Y0126700D01*
X0252616Y0126700D01*
X0254122Y0127324D01*
X0255276Y0128478D01*
X0255900Y0129984D01*
X0255900Y0131616D01*
X0255652Y0132215D01*
X0257122Y0132824D01*
X0258276Y0133978D01*
X0258900Y0135484D01*
X0258900Y0137116D01*
X0258409Y0138300D01*
X0258900Y0139484D01*
X0258900Y0141116D01*
X0258276Y0142622D01*
X0257122Y0143776D01*
X0255616Y0144400D01*
X0253984Y0144400D01*
X0255925Y0144272D02*
X0725021Y0144272D01*
X0725021Y0142673D02*
X0258225Y0142673D01*
X0258900Y0141075D02*
X0725021Y0141075D01*
X0725021Y0139476D02*
X0425221Y0139476D01*
X0425222Y0139476D02*
X0423716Y0140100D01*
X0422084Y0140100D01*
X0420578Y0139476D01*
X0419424Y0138322D01*
X0418800Y0136816D01*
X0418800Y0135184D01*
X0419291Y0134000D01*
X0418800Y0132816D01*
X0418800Y0131184D01*
X0419424Y0129678D01*
X0420578Y0128524D01*
X0420827Y0128421D01*
X0420478Y0128276D01*
X0419324Y0127122D01*
X0418700Y0125616D01*
X0418700Y0123984D01*
X0419324Y0122478D01*
X0420478Y0121324D01*
X0421984Y0120700D01*
X0423616Y0120700D01*
X0425122Y0121324D01*
X0426276Y0122478D01*
X0426900Y0123984D01*
X0426900Y0125616D01*
X0426276Y0127122D01*
X0425122Y0128276D01*
X0424873Y0128379D01*
X0425222Y0128524D01*
X0426376Y0129678D01*
X0427000Y0131184D01*
X0427000Y0132816D01*
X0426509Y0134000D01*
X0427000Y0135184D01*
X0427000Y0136816D01*
X0426376Y0138322D01*
X0425222Y0139476D01*
X0426560Y0137878D02*
X0725021Y0137878D01*
X0725021Y0136279D02*
X0427000Y0136279D01*
X0426791Y0134681D02*
X0582290Y0134681D01*
X0582278Y0134676D02*
X0581124Y0133522D01*
X0580500Y0132016D01*
X0580500Y0130384D01*
X0581020Y0129129D01*
X0580600Y0128116D01*
X0580600Y0126484D01*
X0581224Y0124978D01*
X0582202Y0124000D01*
X0581324Y0123122D01*
X0580700Y0121616D01*
X0580700Y0119984D01*
X0581324Y0118478D01*
X0582478Y0117324D01*
X0583984Y0116700D01*
X0585616Y0116700D01*
X0587122Y0117324D01*
X0588276Y0118478D01*
X0588900Y0119984D01*
X0588900Y0121616D01*
X0588276Y0123122D01*
X0587298Y0124100D01*
X0588176Y0124978D01*
X0588800Y0126484D01*
X0588800Y0128116D01*
X0588280Y0129371D01*
X0588700Y0130384D01*
X0588700Y0132016D01*
X0588076Y0133522D01*
X0586922Y0134676D01*
X0585416Y0135300D01*
X0583784Y0135300D01*
X0582278Y0134676D01*
X0580942Y0133082D02*
X0426889Y0133082D01*
X0427000Y0131484D02*
X0580500Y0131484D01*
X0580707Y0129885D02*
X0426462Y0129885D01*
X0425096Y0128287D02*
X0580671Y0128287D01*
X0580600Y0126688D02*
X0564710Y0126688D01*
X0565276Y0126122D02*
X0564122Y0127276D01*
X0562616Y0127900D01*
X0560984Y0127900D01*
X0559478Y0127276D01*
X0558324Y0126122D01*
X0557700Y0124616D01*
X0557700Y0122984D01*
X0558324Y0121478D01*
X0559478Y0120324D01*
X0560984Y0119700D01*
X0562616Y0119700D01*
X0564122Y0120324D01*
X0565276Y0121478D01*
X0565900Y0122984D01*
X0565900Y0124616D01*
X0565276Y0126122D01*
X0565704Y0125090D02*
X0581178Y0125090D01*
X0581693Y0123491D02*
X0565900Y0123491D01*
X0565448Y0121893D02*
X0580815Y0121893D01*
X0580700Y0120294D02*
X0564050Y0120294D01*
X0559550Y0120294D02*
X0010600Y0120294D01*
X0010600Y0118696D02*
X0581234Y0118696D01*
X0583025Y0117097D02*
X0010600Y0117097D01*
X0010600Y0115499D02*
X0725021Y0115499D01*
X0725021Y0117097D02*
X0586575Y0117097D01*
X0588366Y0118696D02*
X0725021Y0118696D01*
X0725021Y0120294D02*
X0588900Y0120294D01*
X0588785Y0121893D02*
X0725021Y0121893D01*
X0725021Y0123491D02*
X0587907Y0123491D01*
X0588222Y0125090D02*
X0725021Y0125090D01*
X0725021Y0126688D02*
X0588800Y0126688D01*
X0588729Y0128287D02*
X0725021Y0128287D01*
X0725021Y0129885D02*
X0588493Y0129885D01*
X0588700Y0131484D02*
X0725021Y0131484D01*
X0725021Y0133082D02*
X0588258Y0133082D01*
X0586910Y0134681D02*
X0725021Y0134681D01*
X0725021Y0113900D02*
X0010600Y0113900D01*
X0010600Y0112302D02*
X0364540Y0112302D01*
X0364478Y0112276D02*
X0363324Y0111122D01*
X0362700Y0109616D01*
X0362700Y0107984D01*
X0363324Y0106478D01*
X0364478Y0105324D01*
X0365984Y0104700D01*
X0367616Y0104700D01*
X0369122Y0105324D01*
X0370276Y0106478D01*
X0370900Y0107984D01*
X0370900Y0109616D01*
X0370276Y0111122D01*
X0369122Y0112276D01*
X0367616Y0112900D01*
X0365984Y0112900D01*
X0364478Y0112276D01*
X0363151Y0110703D02*
X0010600Y0110703D01*
X0010600Y0109105D02*
X0362700Y0109105D01*
X0362898Y0107506D02*
X0203892Y0107506D01*
X0204276Y0107122D02*
X0203122Y0108276D01*
X0201616Y0108900D01*
X0199984Y0108900D01*
X0198478Y0108276D01*
X0197324Y0107122D01*
X0196700Y0105616D01*
X0196700Y0103984D01*
X0197324Y0102478D01*
X0198478Y0101324D01*
X0199984Y0100700D01*
X0201616Y0100700D01*
X0203122Y0101324D01*
X0204276Y0102478D01*
X0204900Y0103984D01*
X0204900Y0105616D01*
X0204276Y0107122D01*
X0204779Y0105908D02*
X0363894Y0105908D01*
X0369706Y0105908D02*
X0725021Y0105908D01*
X0725021Y0107506D02*
X0370702Y0107506D01*
X0370900Y0109105D02*
X0725021Y0109105D01*
X0725021Y0110703D02*
X0370449Y0110703D01*
X0369060Y0112302D02*
X0725021Y0112302D01*
X0725021Y0104309D02*
X0204900Y0104309D01*
X0204372Y0102711D02*
X0526912Y0102711D01*
X0527478Y0103276D02*
X0526324Y0102122D01*
X0525700Y0100616D01*
X0525700Y0098984D01*
X0526324Y0097478D01*
X0527478Y0096324D01*
X0528984Y0095700D01*
X0530616Y0095700D01*
X0532122Y0096324D01*
X0533276Y0097478D01*
X0533900Y0098984D01*
X0533900Y0100616D01*
X0533276Y0102122D01*
X0532122Y0103276D01*
X0530616Y0103900D01*
X0528984Y0103900D01*
X0527478Y0103276D01*
X0525906Y0101112D02*
X0202611Y0101112D01*
X0198989Y0101112D02*
X0010600Y0101112D01*
X0010600Y0099514D02*
X0525700Y0099514D01*
X0526143Y0097915D02*
X0010600Y0097915D01*
X0010600Y0096317D02*
X0364576Y0096317D01*
X0364478Y0096276D02*
X0363324Y0095122D01*
X0362700Y0093616D01*
X0362700Y0091984D01*
X0363324Y0090478D01*
X0364478Y0089324D01*
X0365984Y0088700D01*
X0367616Y0088700D01*
X0369122Y0089324D01*
X0370276Y0090478D01*
X0370900Y0091984D01*
X0370900Y0093616D01*
X0370276Y0095122D01*
X0369122Y0096276D01*
X0367616Y0096900D01*
X0365984Y0096900D01*
X0364478Y0096276D01*
X0363157Y0094718D02*
X0010600Y0094718D01*
X0010600Y0093120D02*
X0362700Y0093120D01*
X0362892Y0091521D02*
X0010600Y0091521D01*
X0010600Y0089923D02*
X0193124Y0089923D01*
X0193478Y0090276D02*
X0192324Y0089122D01*
X0191700Y0087616D01*
X0191700Y0085984D01*
X0192324Y0084478D01*
X0193478Y0083324D01*
X0194984Y0082700D01*
X0196616Y0082700D01*
X0198122Y0083324D01*
X0199276Y0084478D01*
X0199900Y0085984D01*
X0199900Y0087616D01*
X0199276Y0089122D01*
X0198122Y0090276D01*
X0196616Y0090900D01*
X0194984Y0090900D01*
X0193478Y0090276D01*
X0191993Y0088324D02*
X0010600Y0088324D01*
X0010600Y0086726D02*
X0191700Y0086726D01*
X0192055Y0085127D02*
X0010600Y0085127D01*
X0010600Y0083529D02*
X0139565Y0083529D01*
X0140090Y0084053D02*
X0138247Y0082210D01*
X0137250Y0079803D01*
X0137250Y0077197D01*
X0138247Y0074790D01*
X0140090Y0072947D01*
X0142497Y0071950D01*
X0145103Y0071950D01*
X0147510Y0072947D01*
X0149353Y0074790D01*
X0150350Y0077197D01*
X0150350Y0079803D01*
X0149353Y0082210D01*
X0147510Y0084053D01*
X0145103Y0085050D01*
X0142497Y0085050D01*
X0140090Y0084053D01*
X0138131Y0081930D02*
X0010600Y0081930D01*
X0010600Y0080332D02*
X0137469Y0080332D01*
X0137250Y0078733D02*
X0010600Y0078733D01*
X0010600Y0077134D02*
X0137276Y0077134D01*
X0137938Y0075536D02*
X0010600Y0075536D01*
X0010600Y0073937D02*
X0139099Y0073937D01*
X0141558Y0072339D02*
X0010600Y0072339D01*
X0010600Y0070740D02*
X0643138Y0070740D01*
X0642750Y0069803D02*
X0642750Y0067197D01*
X0643747Y0064790D01*
X0645590Y0062947D01*
X0647997Y0061950D01*
X0650603Y0061950D01*
X0653010Y0062947D01*
X0654853Y0064790D01*
X0655850Y0067197D01*
X0655850Y0069803D01*
X0654853Y0072210D01*
X0653010Y0074053D01*
X0650603Y0075050D01*
X0647997Y0075050D01*
X0645590Y0074053D01*
X0643747Y0072210D01*
X0642750Y0069803D01*
X0642750Y0069142D02*
X0010600Y0069142D01*
X0010600Y0067543D02*
X0642750Y0067543D01*
X0643269Y0065945D02*
X0010600Y0065945D01*
X0010600Y0064346D02*
X0644190Y0064346D01*
X0646071Y0062748D02*
X0010600Y0062748D01*
X0010600Y0061149D02*
X0038986Y0061149D01*
X0039290Y0061453D02*
X0037447Y0059610D01*
X0036450Y0057203D01*
X0036450Y0054597D01*
X0037447Y0052190D01*
X0039290Y0050347D01*
X0041697Y0049350D01*
X0044303Y0049350D01*
X0046710Y0050347D01*
X0048553Y0052190D01*
X0049550Y0054597D01*
X0049550Y0057203D01*
X0048553Y0059610D01*
X0046710Y0061453D01*
X0044303Y0062450D01*
X0041697Y0062450D01*
X0039290Y0061453D01*
X0037423Y0059551D02*
X0010600Y0059551D01*
X0010600Y0057952D02*
X0036760Y0057952D01*
X0036450Y0056354D02*
X0010600Y0056354D01*
X0010600Y0054755D02*
X0036450Y0054755D01*
X0037047Y0053157D02*
X0010600Y0053157D01*
X0010600Y0051558D02*
X0038079Y0051558D01*
X0040225Y0049960D02*
X0010600Y0049960D01*
X0010600Y0048361D02*
X0226389Y0048361D01*
X0226250Y0048697D02*
X0227247Y0046290D01*
X0229090Y0044447D01*
X0231497Y0043450D01*
X0234103Y0043450D01*
X0236510Y0044447D01*
X0238353Y0046290D01*
X0239350Y0048697D01*
X0239350Y0051303D01*
X0238353Y0053710D01*
X0236510Y0055553D01*
X0234103Y0056550D01*
X0231497Y0056550D01*
X0229090Y0055553D01*
X0227247Y0053710D01*
X0226250Y0051303D01*
X0226250Y0048697D01*
X0226250Y0049960D02*
X0045775Y0049960D01*
X0047921Y0051558D02*
X0226356Y0051558D01*
X0227018Y0053157D02*
X0048953Y0053157D01*
X0049550Y0054755D02*
X0228292Y0054755D01*
X0231024Y0056354D02*
X0049550Y0056354D01*
X0049240Y0057952D02*
X0725021Y0057952D01*
X0725021Y0056354D02*
X0557576Y0056354D01*
X0557103Y0056550D02*
X0554497Y0056550D01*
X0552090Y0055553D01*
X0550247Y0053710D01*
X0549250Y0051303D01*
X0549250Y0048697D01*
X0550247Y0046290D01*
X0552090Y0044447D01*
X0554497Y0043450D01*
X0557103Y0043450D01*
X0559510Y0044447D01*
X0561353Y0046290D01*
X0562350Y0048697D01*
X0562350Y0051303D01*
X0561353Y0053710D01*
X0559510Y0055553D01*
X0557103Y0056550D01*
X0554024Y0056354D02*
X0396576Y0056354D01*
X0396103Y0056550D02*
X0393497Y0056550D01*
X0391090Y0055553D01*
X0389247Y0053710D01*
X0388250Y0051303D01*
X0388250Y0048697D01*
X0389247Y0046290D01*
X0391090Y0044447D01*
X0393497Y0043450D01*
X0396103Y0043450D01*
X0398510Y0044447D01*
X0400353Y0046290D01*
X0401350Y0048697D01*
X0401350Y0051303D01*
X0400353Y0053710D01*
X0398510Y0055553D01*
X0396103Y0056550D01*
X0393024Y0056354D02*
X0234576Y0056354D01*
X0237308Y0054755D02*
X0390292Y0054755D01*
X0389018Y0053157D02*
X0238582Y0053157D01*
X0239244Y0051558D02*
X0388356Y0051558D01*
X0388250Y0049960D02*
X0239350Y0049960D01*
X0239211Y0048361D02*
X0388389Y0048361D01*
X0389051Y0046763D02*
X0238549Y0046763D01*
X0237227Y0045164D02*
X0390373Y0045164D01*
X0393218Y0043566D02*
X0234382Y0043566D01*
X0231218Y0043566D02*
X0010600Y0043566D01*
X0010600Y0045164D02*
X0228373Y0045164D01*
X0227051Y0046763D02*
X0010600Y0046763D01*
X0010600Y0041967D02*
X0725021Y0041967D01*
X0725021Y0040369D02*
X0010600Y0040369D01*
X0010600Y0038770D02*
X0725021Y0038770D01*
X0725021Y0037172D02*
X0010600Y0037172D01*
X0010600Y0035573D02*
X0725021Y0035573D01*
X0725021Y0033975D02*
X0010600Y0033975D01*
X0010600Y0032376D02*
X0725021Y0032376D01*
X0725021Y0030778D02*
X0010600Y0030778D01*
X0010600Y0029179D02*
X0725021Y0029179D01*
X0725021Y0027581D02*
X0010600Y0027581D01*
X0010600Y0025982D02*
X0725021Y0025982D01*
X0725021Y0024384D02*
X0010600Y0024384D01*
X0010600Y0022785D02*
X0725021Y0022785D01*
X0725021Y0021187D02*
X0010600Y0021187D01*
X0010600Y0019588D02*
X0725021Y0019588D01*
X0725021Y0017990D02*
X0010600Y0017990D01*
X0010600Y0016391D02*
X0725021Y0016391D01*
X0725021Y0014793D02*
X0010600Y0014793D01*
X0010600Y0013194D02*
X0725021Y0013194D01*
X0725021Y0011596D02*
X0010600Y0011596D01*
X0010600Y0009997D02*
X0725021Y0009997D01*
X0725021Y0009600D02*
X0010600Y0009600D01*
X0010600Y0546401D01*
X0725021Y0546401D01*
X0725021Y0009600D01*
X0725021Y0043566D02*
X0557382Y0043566D01*
X0554218Y0043566D02*
X0396382Y0043566D01*
X0399227Y0045164D02*
X0551373Y0045164D01*
X0550051Y0046763D02*
X0400549Y0046763D01*
X0401211Y0048361D02*
X0549389Y0048361D01*
X0549250Y0049960D02*
X0401350Y0049960D01*
X0401244Y0051558D02*
X0549356Y0051558D01*
X0550018Y0053157D02*
X0400582Y0053157D01*
X0399308Y0054755D02*
X0551292Y0054755D01*
X0560308Y0054755D02*
X0725021Y0054755D01*
X0725021Y0053157D02*
X0561582Y0053157D01*
X0562244Y0051558D02*
X0725021Y0051558D01*
X0725021Y0049960D02*
X0562350Y0049960D01*
X0562211Y0048361D02*
X0725021Y0048361D01*
X0725021Y0046763D02*
X0561549Y0046763D01*
X0560227Y0045164D02*
X0725021Y0045164D01*
X0725021Y0059551D02*
X0048577Y0059551D01*
X0047014Y0061149D02*
X0725021Y0061149D01*
X0725021Y0062748D02*
X0652529Y0062748D01*
X0654410Y0064346D02*
X0725021Y0064346D01*
X0725021Y0065945D02*
X0655331Y0065945D01*
X0655850Y0067543D02*
X0725021Y0067543D01*
X0725021Y0069142D02*
X0655850Y0069142D01*
X0655462Y0070740D02*
X0725021Y0070740D01*
X0725021Y0072339D02*
X0654724Y0072339D01*
X0653126Y0073937D02*
X0725021Y0073937D01*
X0725021Y0075536D02*
X0477662Y0075536D01*
X0477353Y0074790D02*
X0478350Y0077197D01*
X0478350Y0079803D01*
X0477353Y0082210D01*
X0475510Y0084053D01*
X0473103Y0085050D01*
X0470497Y0085050D01*
X0468090Y0084053D01*
X0466247Y0082210D01*
X0465250Y0079803D01*
X0465250Y0077197D01*
X0466247Y0074790D01*
X0468090Y0072947D01*
X0470497Y0071950D01*
X0473103Y0071950D01*
X0475510Y0072947D01*
X0477353Y0074790D01*
X0476501Y0073937D02*
X0645474Y0073937D01*
X0643876Y0072339D02*
X0474042Y0072339D01*
X0469558Y0072339D02*
X0310042Y0072339D01*
X0309103Y0071950D02*
X0311510Y0072947D01*
X0313353Y0074790D01*
X0314350Y0077197D01*
X0314350Y0079803D01*
X0313353Y0082210D01*
X0311510Y0084053D01*
X0309103Y0085050D01*
X0306497Y0085050D01*
X0304090Y0084053D01*
X0302247Y0082210D01*
X0301250Y0079803D01*
X0301250Y0077197D01*
X0302247Y0074790D01*
X0304090Y0072947D01*
X0306497Y0071950D01*
X0309103Y0071950D01*
X0305558Y0072339D02*
X0146042Y0072339D01*
X0148501Y0073937D02*
X0303099Y0073937D01*
X0301938Y0075536D02*
X0149662Y0075536D01*
X0150324Y0077134D02*
X0301276Y0077134D01*
X0301250Y0078733D02*
X0150350Y0078733D01*
X0150131Y0080332D02*
X0301469Y0080332D01*
X0302131Y0081930D02*
X0149469Y0081930D01*
X0148035Y0083529D02*
X0193273Y0083529D01*
X0198327Y0083529D02*
X0303565Y0083529D01*
X0312035Y0083529D02*
X0467565Y0083529D01*
X0466131Y0081930D02*
X0313469Y0081930D01*
X0314131Y0080332D02*
X0465469Y0080332D01*
X0465250Y0078733D02*
X0314350Y0078733D01*
X0314324Y0077134D02*
X0465276Y0077134D01*
X0465938Y0075536D02*
X0313662Y0075536D01*
X0312501Y0073937D02*
X0467099Y0073937D01*
X0478324Y0077134D02*
X0725021Y0077134D01*
X0725021Y0078733D02*
X0478350Y0078733D01*
X0478131Y0080332D02*
X0526470Y0080332D01*
X0526478Y0080324D02*
X0527984Y0079700D01*
X0529616Y0079700D01*
X0531122Y0080324D01*
X0532276Y0081478D01*
X0532900Y0082984D01*
X0532900Y0084616D01*
X0532276Y0086122D01*
X0531122Y0087276D01*
X0529616Y0087900D01*
X0527984Y0087900D01*
X0526478Y0087276D01*
X0525324Y0086122D01*
X0524700Y0084616D01*
X0524700Y0082984D01*
X0525324Y0081478D01*
X0526478Y0080324D01*
X0525137Y0081930D02*
X0477469Y0081930D01*
X0476035Y0083529D02*
X0524700Y0083529D01*
X0524912Y0085127D02*
X0199545Y0085127D01*
X0199900Y0086726D02*
X0525927Y0086726D01*
X0531673Y0086726D02*
X0725021Y0086726D01*
X0725021Y0088324D02*
X0199607Y0088324D01*
X0198476Y0089923D02*
X0363879Y0089923D01*
X0369721Y0089923D02*
X0725021Y0089923D01*
X0725021Y0091521D02*
X0370708Y0091521D01*
X0370900Y0093120D02*
X0725021Y0093120D01*
X0725021Y0094718D02*
X0370443Y0094718D01*
X0369024Y0096317D02*
X0527496Y0096317D01*
X0532104Y0096317D02*
X0725021Y0096317D01*
X0725021Y0097915D02*
X0533457Y0097915D01*
X0533900Y0099514D02*
X0725021Y0099514D01*
X0725021Y0101112D02*
X0533694Y0101112D01*
X0532688Y0102711D02*
X0725021Y0102711D01*
X0725021Y0085127D02*
X0532688Y0085127D01*
X0532900Y0083529D02*
X0725021Y0083529D01*
X0725021Y0081930D02*
X0532463Y0081930D01*
X0531130Y0080332D02*
X0725021Y0080332D01*
X0660576Y0195424D02*
X0565524Y0195424D01*
X0568286Y0197023D02*
X0657814Y0197023D01*
X0656527Y0198621D02*
X0569573Y0198621D01*
X0570235Y0200220D02*
X0655865Y0200220D01*
X0655750Y0201818D02*
X0570350Y0201818D01*
X0570220Y0203417D02*
X0655880Y0203417D01*
X0656542Y0205015D02*
X0569558Y0205015D01*
X0568249Y0206614D02*
X0657851Y0206614D01*
X0725021Y0216205D02*
X0349577Y0216205D01*
X0349900Y0217803D02*
X0525735Y0217803D01*
X0527865Y0217803D02*
X0725021Y0217803D01*
X0725021Y0219402D02*
X0530200Y0219402D01*
X0530900Y0221001D02*
X0725021Y0221001D01*
X0725021Y0222599D02*
X0530900Y0222599D01*
X0530201Y0224198D02*
X0725021Y0224198D01*
X0582093Y0254569D02*
X0581505Y0254569D01*
X0580245Y0256168D02*
X0580230Y0256168D01*
X0522700Y0221001D02*
X0348398Y0221001D01*
X0349574Y0219402D02*
X0523400Y0219402D01*
X0558042Y0205015D02*
X0468558Y0205015D01*
X0469220Y0203417D02*
X0557380Y0203417D01*
X0557250Y0201818D02*
X0469350Y0201818D01*
X0469235Y0200220D02*
X0557365Y0200220D01*
X0558027Y0198621D02*
X0468573Y0198621D01*
X0467286Y0197023D02*
X0559314Y0197023D01*
X0562076Y0195424D02*
X0464524Y0195424D01*
X0461076Y0195424D02*
X0393524Y0195424D01*
X0396286Y0197023D02*
X0458314Y0197023D01*
X0457027Y0198621D02*
X0397573Y0198621D01*
X0398235Y0200220D02*
X0456365Y0200220D01*
X0456250Y0201818D02*
X0398350Y0201818D01*
X0398220Y0203417D02*
X0456380Y0203417D01*
X0457042Y0205015D02*
X0397558Y0205015D01*
X0396249Y0206614D02*
X0458351Y0206614D01*
X0467249Y0206614D02*
X0559351Y0206614D01*
X0558890Y0126688D02*
X0426456Y0126688D01*
X0426900Y0125090D02*
X0557896Y0125090D01*
X0557700Y0123491D02*
X0426696Y0123491D01*
X0425691Y0121893D02*
X0558152Y0121893D01*
X0420504Y0128287D02*
X0402900Y0128287D01*
X0402900Y0128616D02*
X0402276Y0130122D01*
X0401122Y0131276D01*
X0399616Y0131900D01*
X0397984Y0131900D01*
X0396478Y0131276D01*
X0395324Y0130122D01*
X0394700Y0128616D01*
X0394700Y0126984D01*
X0395324Y0125478D01*
X0396478Y0124324D01*
X0397984Y0123700D01*
X0399616Y0123700D01*
X0401122Y0124324D01*
X0402276Y0125478D01*
X0402900Y0126984D01*
X0402900Y0128616D01*
X0402374Y0129885D02*
X0419338Y0129885D01*
X0418800Y0131484D02*
X0400620Y0131484D01*
X0396980Y0131484D02*
X0255900Y0131484D01*
X0255859Y0129885D02*
X0395226Y0129885D01*
X0394700Y0128287D02*
X0255085Y0128287D01*
X0257381Y0133082D02*
X0418911Y0133082D01*
X0419009Y0134681D02*
X0258567Y0134681D01*
X0258900Y0136279D02*
X0418800Y0136279D01*
X0419240Y0137878D02*
X0258584Y0137878D01*
X0258897Y0139476D02*
X0420579Y0139476D01*
X0419144Y0126688D02*
X0402777Y0126688D01*
X0401888Y0125090D02*
X0418700Y0125090D01*
X0418904Y0123491D02*
X0010600Y0123491D01*
X0010600Y0121893D02*
X0419909Y0121893D01*
X0395712Y0125090D02*
X0010600Y0125090D01*
X0010600Y0126688D02*
X0229113Y0126688D01*
X0229478Y0126324D02*
X0230984Y0125700D01*
X0232616Y0125700D01*
X0234122Y0126324D01*
X0235276Y0127478D01*
X0235900Y0128984D01*
X0235900Y0130616D01*
X0235276Y0132122D01*
X0234122Y0133276D01*
X0232616Y0133900D01*
X0230984Y0133900D01*
X0229478Y0133276D01*
X0228324Y0132122D01*
X0227700Y0130616D01*
X0227700Y0128984D01*
X0228324Y0127478D01*
X0229478Y0126324D01*
X0227989Y0128287D02*
X0010600Y0128287D01*
X0010600Y0129885D02*
X0227700Y0129885D01*
X0228060Y0131484D02*
X0010600Y0131484D01*
X0010600Y0133082D02*
X0229284Y0133082D01*
X0234316Y0133082D02*
X0248308Y0133082D01*
X0247700Y0131484D02*
X0235540Y0131484D01*
X0235900Y0129885D02*
X0247741Y0129885D01*
X0248515Y0128287D02*
X0235611Y0128287D01*
X0234487Y0126688D02*
X0394823Y0126688D01*
X0390076Y0195424D02*
X0297524Y0195424D01*
X0300286Y0197023D02*
X0387314Y0197023D01*
X0386027Y0198621D02*
X0301573Y0198621D01*
X0302235Y0200220D02*
X0385365Y0200220D01*
X0385250Y0201818D02*
X0302350Y0201818D01*
X0302220Y0203417D02*
X0385380Y0203417D01*
X0386042Y0205015D02*
X0301558Y0205015D01*
X0300249Y0206614D02*
X0387351Y0206614D01*
X0294076Y0195424D02*
X0230524Y0195424D01*
X0233286Y0197023D02*
X0291314Y0197023D01*
X0290027Y0198621D02*
X0234573Y0198621D01*
X0235235Y0200220D02*
X0289365Y0200220D01*
X0289250Y0201818D02*
X0235350Y0201818D01*
X0235220Y0203417D02*
X0289380Y0203417D01*
X0290042Y0205015D02*
X0234558Y0205015D01*
X0233249Y0206614D02*
X0291351Y0206614D01*
X0227076Y0195424D02*
X0145524Y0195424D01*
X0148286Y0197023D02*
X0224314Y0197023D01*
X0223027Y0198621D02*
X0149573Y0198621D01*
X0150235Y0200220D02*
X0222365Y0200220D01*
X0222250Y0201818D02*
X0150350Y0201818D01*
X0150220Y0203417D02*
X0222380Y0203417D01*
X0223042Y0205015D02*
X0149558Y0205015D01*
X0148249Y0206614D02*
X0224351Y0206614D01*
X0177114Y0236986D02*
X0010600Y0236986D01*
X0010600Y0238584D02*
X0176700Y0238584D01*
X0176935Y0240183D02*
X0010600Y0240183D01*
X0010600Y0241781D02*
X0177983Y0241781D01*
X0194336Y0328101D02*
X0132264Y0328101D01*
X0133564Y0329699D02*
X0193036Y0329699D01*
X0192374Y0331298D02*
X0134226Y0331298D01*
X0134350Y0332896D02*
X0192250Y0332896D01*
X0192371Y0334495D02*
X0134229Y0334495D01*
X0133567Y0336093D02*
X0193033Y0336093D01*
X0194329Y0337692D02*
X0132271Y0337692D01*
X0129488Y0339290D02*
X0197112Y0339290D01*
X0200488Y0339290D02*
X0283112Y0339290D01*
X0280329Y0337692D02*
X0203271Y0337692D01*
X0204567Y0336093D02*
X0279033Y0336093D01*
X0278371Y0334495D02*
X0205229Y0334495D01*
X0205350Y0332896D02*
X0278250Y0332896D01*
X0278374Y0331298D02*
X0205226Y0331298D01*
X0204564Y0329699D02*
X0279036Y0329699D01*
X0280336Y0328101D02*
X0203264Y0328101D01*
X0126112Y0339290D02*
X0050450Y0339290D01*
X0050450Y0337692D02*
X0123329Y0337692D01*
X0122033Y0336093D02*
X0050200Y0336093D01*
X0049538Y0334495D02*
X0121371Y0334495D01*
X0099918Y0374458D02*
X0010600Y0374458D01*
X0010600Y0376056D02*
X0099700Y0376056D01*
X0100130Y0377655D02*
X0010600Y0377655D01*
X0010600Y0379253D02*
X0101455Y0379253D01*
X0048676Y0342487D02*
X0725021Y0342487D01*
X0725021Y0340889D02*
X0049793Y0340889D01*
X0042601Y0267357D02*
X0010600Y0267357D01*
X0010600Y0265759D02*
X0040996Y0265759D01*
X0040188Y0264160D02*
X0010600Y0264160D01*
X0010600Y0262562D02*
X0039750Y0262562D01*
X0039750Y0260963D02*
X0010600Y0260963D01*
X0010600Y0259365D02*
X0040219Y0259365D01*
X0041071Y0257766D02*
X0010600Y0257766D01*
X0010600Y0256168D02*
X0042781Y0256168D01*
X0010600Y0142673D02*
X0251375Y0142673D01*
X0250700Y0141075D02*
X0010600Y0141075D01*
X0010600Y0139476D02*
X0250703Y0139476D01*
X0251016Y0137878D02*
X0010600Y0137878D01*
X0010600Y0136279D02*
X0250700Y0136279D01*
X0250456Y0134681D02*
X0010600Y0134681D01*
X0010600Y0107506D02*
X0197708Y0107506D01*
X0196821Y0105908D02*
X0010600Y0105908D01*
X0010600Y0104309D02*
X0196700Y0104309D01*
X0197228Y0102711D02*
X0010600Y0102711D01*
X0289264Y0328101D02*
X0351336Y0328101D01*
X0350036Y0329699D02*
X0290564Y0329699D01*
X0291226Y0331298D02*
X0349374Y0331298D01*
X0349250Y0332896D02*
X0291350Y0332896D01*
X0291229Y0334495D02*
X0349371Y0334495D01*
X0350033Y0336093D02*
X0290567Y0336093D01*
X0289271Y0337692D02*
X0351329Y0337692D01*
X0354112Y0339290D02*
X0286488Y0339290D01*
X0269103Y0453250D02*
X0271510Y0454247D01*
X0273353Y0456090D01*
X0274350Y0458497D01*
X0274350Y0461103D01*
X0273353Y0463510D01*
X0271510Y0465353D01*
X0269103Y0466350D01*
X0266497Y0466350D01*
X0264090Y0465353D01*
X0262247Y0463510D01*
X0261250Y0461103D01*
X0261250Y0458497D01*
X0262247Y0456090D01*
X0264090Y0454247D01*
X0266497Y0453250D01*
X0269103Y0453250D01*
X0271646Y0454383D02*
X0319954Y0454383D01*
X0320090Y0454247D02*
X0322497Y0453250D01*
X0325103Y0453250D01*
X0327510Y0454247D01*
X0329353Y0456090D01*
X0330350Y0458497D01*
X0330350Y0461103D01*
X0329353Y0463510D01*
X0327510Y0465353D01*
X0325103Y0466350D01*
X0322497Y0466350D01*
X0320090Y0465353D01*
X0318247Y0463510D01*
X0317250Y0461103D01*
X0317250Y0458497D01*
X0318247Y0456090D01*
X0320090Y0454247D01*
X0318355Y0455982D02*
X0273245Y0455982D01*
X0273970Y0457580D02*
X0317630Y0457580D01*
X0317250Y0459179D02*
X0274350Y0459179D01*
X0274350Y0460777D02*
X0317250Y0460777D01*
X0317777Y0462376D02*
X0273823Y0462376D01*
X0272889Y0463974D02*
X0318711Y0463974D01*
X0320621Y0465573D02*
X0270979Y0465573D01*
X0264621Y0465573D02*
X0184979Y0465573D01*
X0185510Y0465353D02*
X0183103Y0466350D01*
X0180497Y0466350D01*
X0178090Y0465353D01*
X0176247Y0463510D01*
X0175250Y0461103D01*
X0175250Y0458497D01*
X0176247Y0456090D01*
X0178090Y0454247D01*
X0180497Y0453250D01*
X0183103Y0453250D01*
X0185510Y0454247D01*
X0187353Y0456090D01*
X0188350Y0458497D01*
X0188350Y0461103D01*
X0187353Y0463510D01*
X0185510Y0465353D01*
X0186889Y0463974D02*
X0262711Y0463974D01*
X0261777Y0462376D02*
X0187823Y0462376D01*
X0188350Y0460777D02*
X0261250Y0460777D01*
X0261250Y0459179D02*
X0188350Y0459179D01*
X0187970Y0457580D02*
X0261630Y0457580D01*
X0262355Y0455982D02*
X0187245Y0455982D01*
X0185646Y0454383D02*
X0263954Y0454383D01*
X0327646Y0454383D02*
X0403954Y0454383D01*
X0402355Y0455982D02*
X0329245Y0455982D01*
X0329970Y0457580D02*
X0401630Y0457580D01*
X0401250Y0459179D02*
X0330350Y0459179D01*
X0330350Y0460777D02*
X0401250Y0460777D01*
X0401777Y0462376D02*
X0329823Y0462376D01*
X0328889Y0463974D02*
X0402711Y0463974D01*
X0404621Y0465573D02*
X0326979Y0465573D01*
X0293471Y0510331D02*
X0276129Y0510331D01*
X0276877Y0511930D02*
X0292723Y0511930D01*
X0292700Y0513528D02*
X0276900Y0513528D01*
X0276272Y0515127D02*
X0293328Y0515127D01*
X0295424Y0516725D02*
X0274038Y0516725D01*
X0271562Y0516725D02*
X0163673Y0516725D01*
X0163622Y0518324D02*
X0292978Y0518324D01*
X0292226Y0519922D02*
X0164667Y0519922D01*
X0164900Y0521521D02*
X0292200Y0521521D01*
X0292558Y0523119D02*
X0164484Y0523119D01*
X0164900Y0524718D02*
X0292200Y0524718D01*
X0292490Y0526316D02*
X0164817Y0526316D01*
X0163984Y0527915D02*
X0293616Y0527915D01*
X0269328Y0515127D02*
X0164688Y0515127D01*
X0164900Y0513528D02*
X0268700Y0513528D01*
X0268723Y0511930D02*
X0164463Y0511930D01*
X0163129Y0510331D02*
X0269471Y0510331D01*
X0178621Y0465573D02*
X0129979Y0465573D01*
X0130510Y0465353D02*
X0128103Y0466350D01*
X0125497Y0466350D01*
X0123090Y0465353D01*
X0121247Y0463510D01*
X0120250Y0461103D01*
X0120250Y0458497D01*
X0121247Y0456090D01*
X0123090Y0454247D01*
X0125497Y0453250D01*
X0128103Y0453250D01*
X0130510Y0454247D01*
X0132353Y0456090D01*
X0133350Y0458497D01*
X0133350Y0461103D01*
X0132353Y0463510D01*
X0130510Y0465353D01*
X0131889Y0463974D02*
X0176711Y0463974D01*
X0175777Y0462376D02*
X0132823Y0462376D01*
X0133350Y0460777D02*
X0175250Y0460777D01*
X0175250Y0459179D02*
X0133350Y0459179D01*
X0132970Y0457580D02*
X0175630Y0457580D01*
X0176355Y0455982D02*
X0132245Y0455982D01*
X0130646Y0454383D02*
X0177954Y0454383D01*
X0122954Y0454383D02*
X0051146Y0454383D01*
X0052745Y0455982D02*
X0121355Y0455982D01*
X0120630Y0457580D02*
X0053470Y0457580D01*
X0053850Y0459179D02*
X0120250Y0459179D01*
X0120250Y0460777D02*
X0053850Y0460777D01*
X0053323Y0462376D02*
X0120777Y0462376D01*
X0121711Y0463974D02*
X0052389Y0463974D01*
X0050479Y0465573D02*
X0123621Y0465573D01*
X0144793Y0516725D02*
X0157927Y0516725D01*
X0157978Y0518324D02*
X0144900Y0518324D01*
X0144359Y0519922D02*
X0156933Y0519922D01*
X0156700Y0521521D02*
X0142531Y0521521D01*
X0010600Y0537506D02*
X0725021Y0537506D01*
X0725021Y0539104D02*
X0010600Y0539104D01*
X0010600Y0540703D02*
X0725021Y0540703D01*
X0725021Y0542301D02*
X0010600Y0542301D01*
X0010600Y0543900D02*
X0725021Y0543900D01*
X0725021Y0545498D02*
X0010600Y0545498D01*
X0387002Y0500740D02*
X0725021Y0500740D01*
X0725021Y0457580D02*
X0682818Y0457580D01*
X0683276Y0457122D02*
X0682122Y0458276D01*
X0680616Y0458900D01*
X0678984Y0458900D01*
X0677478Y0458276D01*
X0676324Y0457122D01*
X0675700Y0455616D01*
X0675700Y0453984D01*
X0676324Y0452478D01*
X0677478Y0451324D01*
X0678984Y0450700D01*
X0680616Y0450700D01*
X0682122Y0451324D01*
X0683276Y0452478D01*
X0683900Y0453984D01*
X0683900Y0455616D01*
X0683276Y0457122D01*
X0683748Y0455982D02*
X0725021Y0455982D01*
X0725021Y0454383D02*
X0683900Y0454383D01*
X0683403Y0452785D02*
X0725021Y0452785D01*
X0725021Y0451186D02*
X0681789Y0451186D01*
X0677811Y0451186D02*
X0660984Y0451186D01*
X0661817Y0452785D02*
X0676197Y0452785D01*
X0675700Y0454383D02*
X0661900Y0454383D01*
X0661334Y0455982D02*
X0675852Y0455982D01*
X0676782Y0457580D02*
X0659388Y0457580D01*
X0655736Y0449588D02*
X0725021Y0449588D01*
X0670797Y0441595D02*
X0664803Y0441595D01*
X0665742Y0439997D02*
X0669858Y0439997D01*
X0669700Y0438398D02*
X0665900Y0438398D01*
X0665410Y0436800D02*
X0670191Y0436800D01*
X0671700Y0435201D02*
X0665900Y0435201D01*
X0575667Y0337692D02*
X0512933Y0337692D01*
X0513510Y0337453D02*
X0511103Y0338450D01*
X0508497Y0338450D01*
X0506090Y0337453D01*
X0504247Y0335610D01*
X0503250Y0333203D01*
X0503250Y0330597D01*
X0504247Y0328190D01*
X0506090Y0326347D01*
X0508497Y0325350D01*
X0511103Y0325350D01*
X0513510Y0326347D01*
X0515353Y0328190D01*
X0516350Y0330597D01*
X0516350Y0333203D01*
X0515353Y0335610D01*
X0513510Y0337453D01*
X0514870Y0336093D02*
X0573730Y0336093D01*
X0572785Y0334495D02*
X0515815Y0334495D01*
X0516350Y0332896D02*
X0572250Y0332896D01*
X0572250Y0331298D02*
X0516350Y0331298D01*
X0515978Y0329699D02*
X0572622Y0329699D01*
X0573336Y0328101D02*
X0515264Y0328101D01*
X0513665Y0326502D02*
X0574935Y0326502D01*
X0505935Y0326502D02*
X0445665Y0326502D01*
X0447264Y0328101D02*
X0504336Y0328101D01*
X0503622Y0329699D02*
X0447978Y0329699D01*
X0448350Y0331298D02*
X0503250Y0331298D01*
X0503250Y0332896D02*
X0448350Y0332896D01*
X0447815Y0334495D02*
X0503785Y0334495D01*
X0504730Y0336093D02*
X0446870Y0336093D01*
X0444933Y0337692D02*
X0506667Y0337692D01*
D18*
X0483800Y0341800D03*
X0476300Y0330300D03*
X0468800Y0321800D03*
X0483800Y0321800D03*
X0481300Y0300000D03*
X0471300Y0300000D03*
X0461300Y0300000D03*
X0451300Y0300000D03*
X0441300Y0300000D03*
X0431300Y0300000D03*
X0421300Y0300000D03*
X0411300Y0300000D03*
X0401300Y0300000D03*
X0391300Y0300000D03*
X0381300Y0300000D03*
X0371300Y0300000D03*
X0361300Y0300000D03*
X0351300Y0300000D03*
X0341300Y0300000D03*
X0331300Y0300000D03*
X0321300Y0300000D03*
X0311300Y0300000D03*
X0301300Y0300000D03*
X0291300Y0300000D03*
X0281300Y0300000D03*
X0271300Y0300000D03*
X0261300Y0300000D03*
X0251300Y0300000D03*
X0241300Y0300000D03*
X0231300Y0300000D03*
X0221300Y0300000D03*
X0211300Y0300000D03*
X0201300Y0300000D03*
X0191300Y0300000D03*
X0181300Y0300000D03*
X0171300Y0300000D03*
X0158800Y0300000D03*
X0148800Y0300000D03*
X0138800Y0300000D03*
X0128800Y0300000D03*
X0118800Y0300000D03*
X0108800Y0300000D03*
X0098800Y0300000D03*
X0088800Y0300000D03*
X0078800Y0300000D03*
X0068800Y0300000D03*
X0058800Y0300000D03*
X0048800Y0300000D03*
X0038800Y0300000D03*
X0028800Y0300000D03*
X0081200Y0335300D03*
X0099800Y0361800D03*
X0088000Y0369700D03*
X0085300Y0374500D03*
X0091600Y0374300D03*
X0103800Y0375800D03*
X0078000Y0374500D03*
X0070400Y0374500D03*
X0068800Y0369900D03*
X0134800Y0391800D03*
X0139800Y0387000D03*
X0144800Y0391800D03*
X0134800Y0400800D03*
X0156800Y0399800D03*
X0156900Y0406800D03*
X0156800Y0410600D03*
X0158800Y0428300D03*
X0148800Y0428300D03*
X0138800Y0428300D03*
X0128800Y0428300D03*
X0118800Y0428300D03*
X0108800Y0428300D03*
X0098800Y0428300D03*
X0088800Y0428300D03*
X0078800Y0428300D03*
X0068800Y0428300D03*
X0058800Y0428300D03*
X0048800Y0428300D03*
X0038800Y0428300D03*
X0028800Y0428300D03*
X0085000Y0457200D03*
X0102800Y0479800D03*
X0090800Y0488300D03*
X0092800Y0494800D03*
X0084800Y0494800D03*
X0077300Y0494800D03*
X0069800Y0494800D03*
X0070800Y0488300D03*
X0100800Y0494800D03*
X0107800Y0493800D03*
X0138800Y0506800D03*
X0143900Y0501900D03*
X0148800Y0506800D03*
X0160800Y0513800D03*
X0160800Y0521300D03*
X0160800Y0525300D03*
X0140800Y0517800D03*
X0145800Y0468800D03*
X0154800Y0468800D03*
X0163300Y0468800D03*
X0163300Y0450800D03*
X0154800Y0450800D03*
X0145800Y0450800D03*
X0171300Y0428300D03*
X0181300Y0428300D03*
X0191300Y0428300D03*
X0201300Y0428300D03*
X0211300Y0428300D03*
X0221300Y0428300D03*
X0231300Y0428300D03*
X0241300Y0428300D03*
X0251300Y0428300D03*
X0261300Y0428300D03*
X0271300Y0428300D03*
X0281300Y0428300D03*
X0291300Y0428300D03*
X0301300Y0428300D03*
X0311300Y0428300D03*
X0321300Y0428300D03*
X0331300Y0428300D03*
X0341300Y0428300D03*
X0351300Y0428300D03*
X0361300Y0428300D03*
X0371300Y0428300D03*
X0381300Y0428300D03*
X0391300Y0428300D03*
X0401300Y0428300D03*
X0411300Y0428300D03*
X0421300Y0428300D03*
X0431300Y0428300D03*
X0441300Y0428300D03*
X0451300Y0428300D03*
X0461300Y0428300D03*
X0471300Y0428300D03*
X0481300Y0428300D03*
X0491300Y0428300D03*
X0501300Y0428300D03*
X0511300Y0428300D03*
X0521300Y0428300D03*
X0531300Y0428300D03*
X0541300Y0428300D03*
X0551300Y0428300D03*
X0561300Y0428300D03*
X0577800Y0448800D03*
X0585800Y0452800D03*
X0593800Y0444800D03*
X0585800Y0440800D03*
X0593800Y0432800D03*
X0601800Y0436800D03*
X0601800Y0424800D03*
X0609800Y0426800D03*
X0609800Y0414800D03*
X0601800Y0414800D03*
X0613300Y0402300D03*
X0604800Y0398800D03*
X0615800Y0391800D03*
X0615800Y0387300D03*
X0615800Y0380300D03*
X0621800Y0374800D03*
X0627800Y0378800D03*
X0633800Y0378800D03*
X0627800Y0387300D03*
X0627800Y0391800D03*
X0627800Y0399800D03*
X0635800Y0396800D03*
X0645800Y0396800D03*
X0649800Y0390800D03*
X0653800Y0386800D03*
X0649800Y0382800D03*
X0653800Y0378800D03*
X0649800Y0374800D03*
X0653800Y0370800D03*
X0649800Y0366800D03*
X0645800Y0360800D03*
X0645800Y0351800D03*
X0636800Y0351800D03*
X0635800Y0360800D03*
X0627800Y0368800D03*
X0621800Y0362800D03*
X0613800Y0366800D03*
X0611800Y0350800D03*
X0619800Y0350800D03*
X0636800Y0342800D03*
X0639800Y0336800D03*
X0646800Y0342800D03*
X0654800Y0334800D03*
X0647800Y0328800D03*
X0655800Y0320800D03*
X0662800Y0326800D03*
X0670800Y0318800D03*
X0663800Y0312800D03*
X0671800Y0304800D03*
X0678800Y0310800D03*
X0687800Y0301800D03*
X0680800Y0295800D03*
X0689800Y0286800D03*
X0696800Y0292800D03*
X0705800Y0283800D03*
X0698800Y0277800D03*
X0705800Y0264800D03*
X0705800Y0254800D03*
X0705800Y0244800D03*
X0705800Y0234800D03*
X0705800Y0224800D03*
X0705800Y0214800D03*
X0705800Y0204800D03*
X0705800Y0194800D03*
X0705800Y0184800D03*
X0705800Y0174800D03*
X0705800Y0165800D03*
X0705800Y0156800D03*
X0705800Y0147800D03*
X0705800Y0138800D03*
X0705800Y0129800D03*
X0705800Y0120800D03*
X0705800Y0111800D03*
X0715800Y0111800D03*
X0715800Y0120800D03*
X0715800Y0129800D03*
X0715800Y0138800D03*
X0715800Y0147800D03*
X0715800Y0156800D03*
X0715800Y0165800D03*
X0715800Y0174800D03*
X0715800Y0184800D03*
X0715800Y0194800D03*
X0715800Y0204800D03*
X0715800Y0214800D03*
X0715800Y0224800D03*
X0715800Y0234800D03*
X0715800Y0244800D03*
X0715800Y0254800D03*
X0715800Y0264800D03*
X0714800Y0274800D03*
X0666800Y0270800D03*
X0657800Y0270800D03*
X0657800Y0258800D03*
X0666800Y0258800D03*
X0666800Y0246800D03*
X0657800Y0246800D03*
X0657800Y0234800D03*
X0666800Y0234800D03*
X0666800Y0222800D03*
X0657800Y0222800D03*
X0632800Y0189800D03*
X0625800Y0185300D03*
X0618800Y0189800D03*
X0606800Y0191800D03*
X0599800Y0199800D03*
X0592800Y0191800D03*
X0585800Y0196800D03*
X0592800Y0210800D03*
X0585800Y0214800D03*
X0606800Y0210800D03*
X0571800Y0243800D03*
X0565800Y0238800D03*
X0559800Y0243800D03*
X0559800Y0254800D03*
X0577800Y0252800D03*
X0583800Y0258300D03*
X0583800Y0262800D03*
X0581300Y0300000D03*
X0571300Y0300000D03*
X0561300Y0300000D03*
X0551300Y0300000D03*
X0541300Y0300000D03*
X0531300Y0300000D03*
X0521300Y0300000D03*
X0511300Y0300000D03*
X0501300Y0300000D03*
X0491300Y0300000D03*
X0536800Y0321800D03*
X0550800Y0321800D03*
X0550800Y0341800D03*
X0536800Y0341800D03*
X0574800Y0350800D03*
X0582800Y0350800D03*
X0582800Y0362800D03*
X0574800Y0362800D03*
X0574800Y0374800D03*
X0582800Y0374800D03*
X0591800Y0380300D03*
X0591800Y0387300D03*
X0603800Y0387300D03*
X0603800Y0380300D03*
X0578800Y0386800D03*
X0611800Y0338800D03*
X0619800Y0338800D03*
X0627800Y0328800D03*
X0621800Y0322800D03*
X0631800Y0312800D03*
X0637800Y0318800D03*
X0647800Y0308800D03*
X0641800Y0302800D03*
X0651800Y0292800D03*
X0657800Y0298800D03*
X0666800Y0287800D03*
X0657800Y0282800D03*
X0611300Y0300000D03*
X0601300Y0300000D03*
X0591300Y0300000D03*
X0655800Y0360800D03*
X0665800Y0360800D03*
X0671800Y0366800D03*
X0671800Y0374800D03*
X0671800Y0382800D03*
X0671800Y0390800D03*
X0665800Y0396800D03*
X0655800Y0396800D03*
X0657800Y0430800D03*
X0661800Y0430800D03*
X0661800Y0434800D03*
X0657800Y0434800D03*
X0657800Y0438800D03*
X0661800Y0438800D03*
X0665800Y0430800D03*
X0669800Y0430800D03*
X0673800Y0430800D03*
X0677800Y0430800D03*
X0681800Y0430800D03*
X0685800Y0430800D03*
X0689800Y0430800D03*
X0693800Y0430800D03*
X0687800Y0434800D03*
X0683800Y0434800D03*
X0679800Y0434800D03*
X0675800Y0434800D03*
X0673800Y0438800D03*
X0677800Y0438800D03*
X0681800Y0438800D03*
X0685800Y0438800D03*
X0689800Y0438800D03*
X0691100Y0444400D03*
X0701800Y0444800D03*
X0709800Y0450800D03*
X0717800Y0444800D03*
X0709700Y0472400D03*
X0682800Y0472800D03*
X0682800Y0469800D03*
X0679800Y0454800D03*
X0657800Y0453800D03*
X0651800Y0450800D03*
X0642800Y0461700D03*
X0641800Y0476800D03*
X0631800Y0488800D03*
X0625700Y0493600D03*
X0631800Y0498800D03*
X0613800Y0490800D03*
X0605800Y0480800D03*
X0597800Y0490800D03*
X0589800Y0500800D03*
X0569800Y0500800D03*
X0561800Y0463300D03*
X0561800Y0456300D03*
X0571300Y0455800D03*
X0575800Y0462300D03*
X0549800Y0463300D03*
X0549800Y0456300D03*
X0537800Y0456300D03*
X0537800Y0463300D03*
X0496800Y0468800D03*
X0488800Y0468800D03*
X0479800Y0468800D03*
X0479800Y0450800D03*
X0488800Y0450800D03*
X0496800Y0450800D03*
X0443800Y0450800D03*
X0434800Y0450800D03*
X0426800Y0450800D03*
X0425800Y0468800D03*
X0434800Y0468800D03*
X0443800Y0468800D03*
X0420200Y0501800D03*
X0415900Y0505600D03*
X0424700Y0505500D03*
X0435800Y0513800D03*
X0436000Y0520600D03*
X0436000Y0525000D03*
X0411300Y0513100D03*
X0385800Y0496800D03*
X0374000Y0494600D03*
X0368900Y0494600D03*
X0363400Y0494400D03*
X0357800Y0494600D03*
X0351300Y0494800D03*
X0350800Y0488300D03*
X0370200Y0488400D03*
X0382800Y0479800D03*
X0364700Y0457200D03*
X0304300Y0450800D03*
X0295300Y0450800D03*
X0286300Y0450800D03*
X0285800Y0468800D03*
X0295300Y0468800D03*
X0304300Y0468800D03*
X0278800Y0501800D03*
X0274700Y0505900D03*
X0283800Y0506100D03*
X0272800Y0512800D03*
X0296800Y0512800D03*
X0296300Y0520800D03*
X0296300Y0524800D03*
X0245800Y0496800D03*
X0233100Y0494600D03*
X0228000Y0494700D03*
X0222400Y0494700D03*
X0216800Y0494800D03*
X0211300Y0494800D03*
X0210800Y0488300D03*
X0230100Y0488600D03*
X0245800Y0482800D03*
X0221600Y0457300D03*
X0294200Y0397500D03*
X0294800Y0391800D03*
X0299800Y0386300D03*
X0305800Y0391800D03*
X0315800Y0398800D03*
X0318200Y0408700D03*
X0263800Y0374800D03*
X0250000Y0373000D03*
X0246900Y0367900D03*
X0243200Y0373100D03*
X0236300Y0373100D03*
X0229400Y0373000D03*
X0227800Y0367900D03*
X0259800Y0359800D03*
X0239700Y0330300D03*
X0170800Y0322800D03*
X0163800Y0330800D03*
X0156800Y0322800D03*
X0156800Y0342800D03*
X0170800Y0342800D03*
X0107900Y0265500D03*
X0100400Y0258000D03*
X0092900Y0250500D03*
X0085400Y0258000D03*
X0077900Y0250500D03*
X0085400Y0243000D03*
X0077900Y0235500D03*
X0085400Y0228000D03*
X0077900Y0220500D03*
X0085400Y0213000D03*
X0092900Y0220500D03*
X0100400Y0213000D03*
X0107900Y0220500D03*
X0100400Y0228000D03*
X0092900Y0235500D03*
X0100400Y0243000D03*
X0107900Y0235500D03*
X0107900Y0250500D03*
X0092900Y0265500D03*
X0157300Y0234800D03*
X0156800Y0229800D03*
X0162800Y0234800D03*
X0167800Y0234800D03*
X0173800Y0234800D03*
X0174800Y0229800D03*
X0180800Y0238800D03*
X0180800Y0219800D03*
X0195800Y0213800D03*
X0202300Y0219300D03*
X0207800Y0213800D03*
X0177300Y0191800D03*
X0176300Y0158300D03*
X0163800Y0158300D03*
X0153800Y0158300D03*
X0143800Y0158300D03*
X0133800Y0158300D03*
X0123800Y0158300D03*
X0113800Y0158300D03*
X0103800Y0158300D03*
X0093800Y0158300D03*
X0083800Y0158300D03*
X0073800Y0158300D03*
X0063800Y0158300D03*
X0053800Y0158300D03*
X0043800Y0158300D03*
X0033800Y0158300D03*
X0085400Y0198000D03*
X0077900Y0205500D03*
X0092900Y0205500D03*
X0186300Y0158300D03*
X0196300Y0158300D03*
X0206300Y0158300D03*
X0216300Y0158300D03*
X0226300Y0158300D03*
X0236300Y0158300D03*
X0246300Y0158300D03*
X0256300Y0158300D03*
X0266300Y0158300D03*
X0276300Y0158300D03*
X0286300Y0158300D03*
X0296300Y0158300D03*
X0306300Y0158300D03*
X0316300Y0158300D03*
X0326300Y0158300D03*
X0336300Y0158300D03*
X0346300Y0158300D03*
X0356300Y0158300D03*
X0366300Y0158300D03*
X0376300Y0158300D03*
X0386300Y0158300D03*
X0396300Y0158300D03*
X0406300Y0158300D03*
X0416300Y0158300D03*
X0426300Y0158300D03*
X0436300Y0158300D03*
X0446300Y0158300D03*
X0456300Y0158300D03*
X0466300Y0158300D03*
X0476300Y0158300D03*
X0486300Y0158300D03*
X0496300Y0158300D03*
X0506300Y0158300D03*
X0516300Y0158300D03*
X0526300Y0158300D03*
X0536300Y0158300D03*
X0546300Y0158300D03*
X0556300Y0158300D03*
X0566300Y0158300D03*
X0576300Y0158300D03*
X0586300Y0158300D03*
X0596300Y0158300D03*
X0606300Y0158300D03*
X0616300Y0158300D03*
X0626300Y0158300D03*
X0636300Y0158300D03*
X0646300Y0158300D03*
X0656300Y0158300D03*
X0666300Y0158300D03*
X0676300Y0158300D03*
X0699800Y0102800D03*
X0693800Y0096800D03*
X0687800Y0090800D03*
X0681800Y0084800D03*
X0675800Y0078800D03*
X0668700Y0073200D03*
X0668800Y0064800D03*
X0676800Y0065800D03*
X0682800Y0071800D03*
X0688800Y0077800D03*
X0694800Y0083800D03*
X0700800Y0089800D03*
X0706800Y0095800D03*
X0712800Y0101800D03*
X0629800Y0051000D03*
X0622300Y0044000D03*
X0614800Y0051000D03*
X0595800Y0054800D03*
X0591800Y0050800D03*
X0595800Y0046800D03*
X0591800Y0058800D03*
X0595800Y0062800D03*
X0591800Y0066800D03*
X0595800Y0070800D03*
X0591800Y0074800D03*
X0595800Y0078800D03*
X0591800Y0082800D03*
X0565300Y0108100D03*
X0559800Y0112800D03*
X0570800Y0112800D03*
X0561800Y0123800D03*
X0584700Y0127300D03*
X0584600Y0131200D03*
X0584800Y0120800D03*
X0529800Y0099800D03*
X0516900Y0095900D03*
X0514800Y0091200D03*
X0511300Y0096000D03*
X0505600Y0096000D03*
X0500000Y0096000D03*
X0497800Y0091000D03*
X0528800Y0083800D03*
X0507300Y0057300D03*
X0496600Y0046800D03*
X0489100Y0039800D03*
X0481600Y0046800D03*
X0514800Y0042000D03*
X0522300Y0035000D03*
X0529800Y0042000D03*
X0435800Y0044800D03*
X0431800Y0048800D03*
X0435800Y0052800D03*
X0431800Y0056800D03*
X0435800Y0060800D03*
X0431800Y0064800D03*
X0435800Y0068800D03*
X0431800Y0072800D03*
X0435800Y0076800D03*
X0431800Y0080800D03*
X0403800Y0113200D03*
X0397800Y0117800D03*
X0398800Y0127800D03*
X0409800Y0117800D03*
X0422800Y0124800D03*
X0422900Y0132000D03*
X0422900Y0136000D03*
X0366800Y0108800D03*
X0352700Y0104000D03*
X0352300Y0099000D03*
X0346800Y0104000D03*
X0341200Y0104100D03*
X0335600Y0104000D03*
X0334800Y0100000D03*
X0366800Y0092800D03*
X0347300Y0057300D03*
X0335500Y0049200D03*
X0328000Y0041200D03*
X0320500Y0049200D03*
X0352800Y0043000D03*
X0360300Y0035000D03*
X0367800Y0043000D03*
X0271800Y0044800D03*
X0267800Y0048800D03*
X0271800Y0052800D03*
X0267800Y0056800D03*
X0271800Y0060800D03*
X0267800Y0064800D03*
X0271800Y0068800D03*
X0267800Y0072800D03*
X0271800Y0076800D03*
X0267800Y0080800D03*
X0237300Y0114800D03*
X0231800Y0119800D03*
X0242800Y0119800D03*
X0251800Y0130800D03*
X0254800Y0136300D03*
X0254800Y0140300D03*
X0231800Y0129800D03*
X0200800Y0104800D03*
X0185700Y0099900D03*
X0184900Y0094900D03*
X0179700Y0099900D03*
X0174400Y0100000D03*
X0169000Y0099900D03*
X0167800Y0095000D03*
X0195800Y0086800D03*
X0178300Y0057300D03*
X0172800Y0042000D03*
X0165300Y0036000D03*
X0157800Y0043000D03*
X0183800Y0042000D03*
X0191300Y0036000D03*
X0198800Y0042000D03*
X0107800Y0044800D03*
X0103800Y0048800D03*
X0107800Y0052800D03*
X0103800Y0056800D03*
X0107800Y0060800D03*
X0103800Y0064800D03*
X0107800Y0068800D03*
X0103800Y0072800D03*
X0107800Y0076800D03*
X0103800Y0080800D03*
X0077200Y0044900D03*
X0070700Y0038900D03*
X0064200Y0044900D03*
X0255800Y0191800D03*
X0262800Y0199800D03*
X0269800Y0191800D03*
X0270800Y0210800D03*
X0255800Y0210800D03*
X0212800Y0240800D03*
X0207800Y0245800D03*
X0207800Y0255800D03*
X0217800Y0245800D03*
X0230800Y0252800D03*
X0231200Y0259000D03*
X0231300Y0263300D03*
X0313800Y0322800D03*
X0321800Y0330800D03*
X0328800Y0322800D03*
X0328800Y0342800D03*
X0313800Y0342800D03*
X0382800Y0367900D03*
X0384300Y0373400D03*
X0391100Y0373500D03*
X0397700Y0373500D03*
X0403900Y0373500D03*
X0401900Y0367900D03*
X0413800Y0359800D03*
X0417800Y0374800D03*
X0448800Y0388800D03*
X0453800Y0382800D03*
X0458800Y0388800D03*
X0448800Y0396800D03*
X0472800Y0395800D03*
X0472500Y0402800D03*
X0472500Y0406800D03*
X0468800Y0341800D03*
X0397600Y0330700D03*
X0397700Y0262200D03*
X0397700Y0258200D03*
X0397800Y0251800D03*
X0383800Y0242800D03*
X0378800Y0238200D03*
X0373800Y0242800D03*
X0375800Y0253800D03*
X0345300Y0236700D03*
X0339800Y0233800D03*
X0339800Y0228800D03*
X0333800Y0233800D03*
X0327800Y0233800D03*
X0322300Y0233800D03*
X0321800Y0228800D03*
X0345800Y0217800D03*
X0359200Y0213800D03*
X0365300Y0218400D03*
X0371400Y0213800D03*
X0339300Y0191800D03*
X0326800Y0191800D03*
X0320300Y0185300D03*
X0313800Y0191800D03*
X0419800Y0191800D03*
X0427800Y0199800D03*
X0434800Y0191800D03*
X0434800Y0210800D03*
X0419800Y0210800D03*
X0483800Y0189800D03*
X0490800Y0183300D03*
X0498300Y0189800D03*
X0513200Y0192800D03*
X0531800Y0214800D03*
X0537800Y0220300D03*
X0543800Y0214800D03*
X0526800Y0221800D03*
X0512800Y0230800D03*
X0512800Y0235800D03*
X0506800Y0235800D03*
X0501300Y0235800D03*
X0495800Y0235800D03*
X0494800Y0230800D03*
X0527800Y0236800D03*
X0657800Y0475800D03*
X0655100Y0492300D03*
X0655800Y0506800D03*
X0647800Y0506800D03*
X0647800Y0512800D03*
X0647800Y0518800D03*
X0667800Y0508800D03*
X0667800Y0532800D03*
X0667800Y0540800D03*
X0659800Y0544800D03*
X0707800Y0498800D03*
X0625800Y0482800D03*
D19*
X0693300Y0488800D03*
X0703800Y0490800D03*
M02*
