%
M48
M72
T01C0.00800
T02C0.00984
T03C0.01000
T04C0.01181
T05C0.01575
T06C0.04000
T07C0.05000
T08C0.07000
%
T01
X693300Y488800
X703800Y490800
T02
X460781Y409426
X458419Y409426
X459600Y404800
X460781Y400174
X458419Y400174
X418981Y399274
X416619Y399274
X417800Y403900
X416619Y408526
X418981Y408526
X306481Y411326
X304119Y411326
X305300Y406700
X306481Y402074
X304119Y402074
X268981Y400274
X266619Y400274
X267800Y404900
X266619Y409526
X268981Y409526
X145181Y413426
X142819Y413426
X144000Y408800
X145181Y404174
X142819Y404174
X106981Y401274
X104619Y401274
X105800Y405900
X104619Y410526
X106981Y410526
X112619Y519174
X114981Y519174
X113800Y523800
X112619Y528426
X114981Y528426
X146619Y527926
X148981Y527926
X147800Y523300
X146619Y518674
X148981Y518674
X247719Y520074
X250081Y520074
X248900Y524700
X247719Y529326
X250081Y529326
X282119Y527526
X284481Y527526
X283300Y522900
X284481Y518274
X282119Y518274
X387019Y520674
X389381Y520674
X388200Y525300
X387019Y529926
X389381Y529926
X421919Y527626
X424281Y527626
X423100Y523000
X424281Y518374
X421919Y518374
X528519Y269526
X530881Y269526
X529700Y264900
X528519Y260274
X530881Y260274
X569519Y255874
X571881Y255874
X570700Y260500
X569519Y265126
X571881Y265126
X572981Y134026
X570619Y134026
X571800Y129400
X572981Y124774
X570619Y124774
X530581Y124874
X528219Y124874
X529400Y129500
X528219Y134126
X530581Y134126
X411281Y138626
X408919Y138626
X410100Y134000
X411281Y129374
X408919Y129374
X372281Y130874
X369919Y130874
X371100Y135500
X369919Y140126
X372281Y140126
X243081Y142826
X240719Y142826
X241900Y138200
X240719Y133574
X243081Y133574
X203981Y130874
X201619Y130874
X202800Y135500
X201619Y140126
X203981Y140126
X217119Y256674
X219481Y256674
X218300Y261300
X217119Y265926
X219481Y265926
X178881Y265726
X176519Y265726
X177700Y261100
X178881Y256474
X176519Y256474
X346519Y257274
X348881Y257274
X347700Y261900
X346519Y266526
X348881Y266526
X383619Y264826
X385981Y264826
X384800Y260200
X385981Y255574
X383619Y255574
T03
X375800Y253800
X373800Y242800
X378800Y238200
X383800Y242800
X397800Y251800
X397700Y258200
X397700Y262200
X401300Y300000
X391300Y300000
X381300Y300000
X371300Y300000
X361300Y300000
X351300Y300000
X341300Y300000
X331300Y300000
X321300Y300000
X311300Y300000
X301300Y300000
X291300Y300000
X281300Y300000
X271300Y300000
X261300Y300000
X251300Y300000
X241300Y300000
X231300Y300000
X221300Y300000
X211300Y300000
X201300Y300000
X191300Y300000
X181300Y300000
X171300Y300000
X158800Y300000
X148800Y300000
X138800Y300000
X128800Y300000
X118800Y300000
X108800Y300000
X98800Y300000
X88800Y300000
X78800Y300000
X68800Y300000
X58800Y300000
X48800Y300000
X38800Y300000
X28800Y300000
X81200Y335300
X99800Y361800
X88000Y369700
X85300Y374500
X91600Y374300
X103800Y375800
X78000Y374500
X70400Y374500
X68800Y369900
X134800Y391800
X139800Y387000
X144800Y391800
X134800Y400800
X156800Y399800
X156900Y406800
X156800Y410600
X158800Y428300
X148800Y428300
X138800Y428300
X128800Y428300
X118800Y428300
X108800Y428300
X98800Y428300
X88800Y428300
X78800Y428300
X68800Y428300
X58800Y428300
X48800Y428300
X38800Y428300
X28800Y428300
X85000Y457200
X102800Y479800
X90800Y488300
X92800Y494800
X84800Y494800
X77300Y494800
X69800Y494800
X70800Y488300
X100800Y494800
X107800Y493800
X138800Y506800
X143900Y501900
X148800Y506800
X160800Y513800
X160800Y521300
X160800Y525300
X140800Y517800
X145800Y468800
X154800Y468800
X163300Y468800
X163300Y450800
X154800Y450800
X145800Y450800
X171300Y428300
X181300Y428300
X191300Y428300
X201300Y428300
X211300Y428300
X221300Y428300
X231300Y428300
X241300Y428300
X251300Y428300
X261300Y428300
X271300Y428300
X281300Y428300
X291300Y428300
X301300Y428300
X311300Y428300
X321300Y428300
X331300Y428300
X341300Y428300
X351300Y428300
X361300Y428300
X371300Y428300
X381300Y428300
X391300Y428300
X401300Y428300
X411300Y428300
X421300Y428300
X431300Y428300
X441300Y428300
X451300Y428300
X461300Y428300
X471300Y428300
X481300Y428300
X491300Y428300
X501300Y428300
X511300Y428300
X521300Y428300
X531300Y428300
X541300Y428300
X551300Y428300
X561300Y428300
X577800Y448800
X585800Y452800
X593800Y444800
X585800Y440800
X593800Y432800
X601800Y436800
X601800Y424800
X609800Y426800
X609800Y414800
X601800Y414800
X613300Y402300
X604800Y398800
X615800Y391800
X615800Y387300
X615800Y380300
X621800Y374800
X627800Y378800
X633800Y378800
X627800Y387300
X627800Y391800
X627800Y399800
X635800Y396800
X645800Y396800
X649800Y390800
X653800Y386800
X649800Y382800
X653800Y378800
X649800Y374800
X653800Y370800
X649800Y366800
X645800Y360800
X645800Y351800
X636800Y351800
X635800Y360800
X627800Y368800
X621800Y362800
X613800Y366800
X611800Y350800
X619800Y350800
X636800Y342800
X639800Y336800
X646800Y342800
X654800Y334800
X647800Y328800
X655800Y320800
X662800Y326800
X670800Y318800
X663800Y312800
X671800Y304800
X678800Y310800
X687800Y301800
X680800Y295800
X689800Y286800
X696800Y292800
X705800Y283800
X698800Y277800
X705800Y264800
X705800Y254800
X705800Y244800
X705800Y234800
X705800Y224800
X705800Y214800
X705800Y204800
X705800Y194800
X705800Y184800
X705800Y174800
X705800Y165800
X705800Y156800
X705800Y147800
X705800Y138800
X705800Y129800
X705800Y120800
X705800Y111800
X715800Y111800
X715800Y120800
X715800Y129800
X715800Y138800
X715800Y147800
X715800Y156800
X715800Y165800
X715800Y174800
X715800Y184800
X715800Y194800
X715800Y204800
X715800Y214800
X715800Y224800
X715800Y234800
X715800Y244800
X715800Y254800
X715800Y264800
X714800Y274800
X666800Y270800
X657800Y270800
X657800Y258800
X666800Y258800
X666800Y246800
X657800Y246800
X657800Y234800
X666800Y234800
X666800Y222800
X657800Y222800
X632800Y189800
X625800Y185300
X618800Y189800
X606800Y191800
X599800Y199800
X592800Y191800
X585800Y196800
X592800Y210800
X585800Y214800
X606800Y210800
X571800Y243800
X565800Y238800
X559800Y243800
X559800Y254800
X577800Y252800
X583800Y258300
X583800Y262800
X581300Y300000
X571300Y300000
X561300Y300000
X551300Y300000
X541300Y300000
X531300Y300000
X521300Y300000
X511300Y300000
X501300Y300000
X491300Y300000
X481300Y300000
X471300Y300000
X461300Y300000
X451300Y300000
X441300Y300000
X431300Y300000
X421300Y300000
X411300Y300000
X397600Y330700
X413800Y359800
X401900Y367900
X403900Y373500
X397700Y373500
X391100Y373500
X384300Y373400
X382800Y367900
X417800Y374800
X448800Y388800
X453800Y382800
X458800Y388800
X448800Y396800
X472800Y395800
X472500Y402800
X472500Y406800
X479800Y450800
X488800Y450800
X496800Y450800
X496800Y468800
X488800Y468800
X479800Y468800
X443800Y468800
X434800Y468800
X425800Y468800
X426800Y450800
X434800Y450800
X443800Y450800
X382800Y479800
X370200Y488400
X368900Y494600
X374000Y494600
X363400Y494400
X357800Y494600
X351300Y494800
X350800Y488300
X364700Y457200
X385800Y496800
X411300Y513100
X415900Y505600
X420200Y501800
X424700Y505500
X435800Y513800
X436000Y520600
X436000Y525000
X537800Y463300
X537800Y456300
X549800Y456300
X549800Y463300
X561800Y463300
X561800Y456300
X571300Y455800
X575800Y462300
X605800Y480800
X597800Y490800
X589800Y500800
X569800Y500800
X613800Y490800
X625700Y493600
X631800Y488800
X625800Y482800
X641800Y476800
X642800Y461700
X651800Y450800
X657800Y453800
X657800Y438800
X657800Y434800
X661800Y434800
X661800Y438800
X661800Y430800
X657800Y430800
X665800Y430800
X669800Y430800
X673800Y430800
X677800Y430800
X681800Y430800
X685800Y430800
X689800Y430800
X693800Y430800
X687800Y434800
X683800Y434800
X679800Y434800
X675800Y434800
X673800Y438800
X677800Y438800
X681800Y438800
X685800Y438800
X689800Y438800
X691100Y444400
X701800Y444800
X709800Y450800
X717800Y444800
X709700Y472400
X682800Y472800
X682800Y469800
X679800Y454800
X657800Y475800
X655100Y492300
X655800Y506800
X647800Y506800
X647800Y512800
X647800Y518800
X667800Y508800
X667800Y532800
X667800Y540800
X659800Y544800
X631800Y498800
X707800Y498800
X665800Y396800
X671800Y390800
X671800Y382800
X671800Y374800
X671800Y366800
X665800Y360800
X655800Y360800
X619800Y338800
X611800Y338800
X621800Y322800
X627800Y328800
X637800Y318800
X631800Y312800
X641800Y302800
X647800Y308800
X657800Y298800
X651800Y292800
X657800Y282800
X666800Y287800
X611300Y300000
X601300Y300000
X591300Y300000
X550800Y321800
X536800Y321800
X536800Y341800
X550800Y341800
X574800Y350800
X582800Y350800
X582800Y362800
X574800Y362800
X574800Y374800
X582800Y374800
X591800Y380300
X591800Y387300
X603800Y387300
X603800Y380300
X578800Y386800
X655800Y396800
X483800Y341800
X476300Y330300
X468800Y321800
X483800Y321800
X468800Y341800
X495800Y235800
X494800Y230800
X501300Y235800
X506800Y235800
X512800Y235800
X512800Y230800
X527800Y236800
X526800Y221800
X531800Y214800
X537800Y220300
X543800Y214800
X513200Y192800
X498300Y189800
X490800Y183300
X483800Y189800
X486300Y158300
X496300Y158300
X506300Y158300
X516300Y158300
X526300Y158300
X536300Y158300
X546300Y158300
X556300Y158300
X566300Y158300
X576300Y158300
X586300Y158300
X596300Y158300
X606300Y158300
X616300Y158300
X626300Y158300
X636300Y158300
X646300Y158300
X656300Y158300
X666300Y158300
X676300Y158300
X699800Y102800
X693800Y96800
X687800Y90800
X681800Y84800
X675800Y78800
X668700Y73200
X668800Y64800
X676800Y65800
X682800Y71800
X688800Y77800
X694800Y83800
X700800Y89800
X706800Y95800
X712800Y101800
X629800Y51000
X622300Y44000
X614800Y51000
X595800Y54800
X591800Y50800
X595800Y46800
X591800Y58800
X595800Y62800
X591800Y66800
X595800Y70800
X591800Y74800
X595800Y78800
X591800Y82800
X565300Y108100
X559800Y112800
X570800Y112800
X561800Y123800
X584700Y127300
X584600Y131200
X584800Y120800
X529800Y99800
X516900Y95900
X514800Y91200
X511300Y96000
X505600Y96000
X500000Y96000
X497800Y91000
X528800Y83800
X507300Y57300
X496600Y46800
X489100Y39800
X481600Y46800
X514800Y42000
X522300Y35000
X529800Y42000
X435800Y44800
X431800Y48800
X435800Y52800
X431800Y56800
X435800Y60800
X431800Y64800
X435800Y68800
X431800Y72800
X435800Y76800
X431800Y80800
X403800Y113200
X397800Y117800
X398800Y127800
X409800Y117800
X422800Y124800
X422900Y132000
X422900Y136000
X426300Y158300
X416300Y158300
X406300Y158300
X396300Y158300
X386300Y158300
X376300Y158300
X366300Y158300
X356300Y158300
X346300Y158300
X336300Y158300
X326300Y158300
X316300Y158300
X306300Y158300
X296300Y158300
X286300Y158300
X276300Y158300
X266300Y158300
X256300Y158300
X246300Y158300
X236300Y158300
X226300Y158300
X216300Y158300
X206300Y158300
X196300Y158300
X186300Y158300
X176300Y158300
X163800Y158300
X153800Y158300
X143800Y158300
X133800Y158300
X123800Y158300
X113800Y158300
X103800Y158300
X93800Y158300
X83800Y158300
X73800Y158300
X63800Y158300
X53800Y158300
X43800Y158300
X33800Y158300
X85400Y198000
X77900Y205500
X85400Y213000
X77900Y220500
X85400Y228000
X92900Y220500
X100400Y213000
X107900Y220500
X100400Y228000
X92900Y235500
X85400Y243000
X77900Y235500
X77900Y250500
X85400Y258000
X92900Y250500
X100400Y258000
X92900Y265500
X107900Y265500
X107900Y250500
X100400Y243000
X107900Y235500
X92900Y205500
X156800Y229800
X157300Y234800
X162800Y234800
X167800Y234800
X173800Y234800
X174800Y229800
X180800Y238800
X180800Y219800
X195800Y213800
X202300Y219300
X207800Y213800
X177300Y191800
X212800Y240800
X207800Y245800
X207800Y255800
X217800Y245800
X230800Y252800
X231200Y259000
X231300Y263300
X255800Y210800
X262800Y199800
X255800Y191800
X269800Y191800
X270800Y210800
X313800Y191800
X320300Y185300
X326800Y191800
X339300Y191800
X359200Y213800
X365300Y218400
X371400Y213800
X345800Y217800
X339800Y228800
X339800Y233800
X333800Y233800
X327800Y233800
X322300Y233800
X321800Y228800
X345300Y236700
X419800Y210800
X427800Y199800
X434800Y191800
X419800Y191800
X434800Y210800
X436300Y158300
X446300Y158300
X456300Y158300
X466300Y158300
X476300Y158300
X366800Y108800
X352700Y104000
X352300Y99000
X346800Y104000
X341200Y104100
X335600Y104000
X334800Y100000
X366800Y92800
X347300Y57300
X335500Y49200
X328000Y41200
X320500Y49200
X352800Y43000
X360300Y35000
X367800Y43000
X271800Y44800
X267800Y48800
X271800Y52800
X267800Y56800
X271800Y60800
X267800Y64800
X271800Y68800
X267800Y72800
X271800Y76800
X267800Y80800
X237300Y114800
X231800Y119800
X242800Y119800
X251800Y130800
X254800Y136300
X254800Y140300
X231800Y129800
X200800Y104800
X185700Y99900
X184900Y94900
X179700Y99900
X174400Y100000
X169000Y99900
X167800Y95000
X195800Y86800
X178300Y57300
X172800Y42000
X165300Y36000
X157800Y43000
X183800Y42000
X191300Y36000
X198800Y42000
X107800Y44800
X103800Y48800
X107800Y52800
X103800Y56800
X107800Y60800
X103800Y64800
X107800Y68800
X103800Y72800
X107800Y76800
X103800Y80800
X77200Y44900
X70700Y38900
X64200Y44900
X156800Y322800
X163800Y330800
X170800Y322800
X170800Y342800
X156800Y342800
X227800Y367900
X229400Y373000
X236300Y373100
X243200Y373100
X246900Y367900
X250000Y373000
X263800Y374800
X259800Y359800
X239700Y330300
X313800Y322800
X321800Y330800
X328800Y322800
X328800Y342800
X313800Y342800
X299800Y386300
X294800Y391800
X294200Y397500
X305800Y391800
X315800Y398800
X318200Y408700
X304300Y450800
X295300Y450800
X286300Y450800
X285800Y468800
X295300Y468800
X304300Y468800
X278800Y501800
X274700Y505900
X283800Y506100
X272800Y512800
X296800Y512800
X296300Y520800
X296300Y524800
X245800Y496800
X233100Y494600
X228000Y494700
X222400Y494700
X216800Y494800
X211300Y494800
X210800Y488300
X230100Y488600
X245800Y482800
X221600Y457300
T04
X282225Y404869
X283800Y402900
X285375Y404869
X285375Y400931
X282225Y400931
X267475Y519731
X265900Y521700
X264325Y523669
X267475Y523669
X264325Y519731
X132375Y519831
X130800Y521800
X129225Y519831
X129225Y523769
X132375Y523769
X126375Y406869
X124800Y404900
X123225Y402931
X126375Y402931
X123225Y406869
X196125Y262069
X197700Y260100
X196125Y258131
X199275Y258131
X199275Y262069
X363125Y260869
X364700Y258900
X366275Y260869
X366275Y256931
X363125Y256931
X386125Y134669
X387700Y132700
X389275Y130731
X386125Y130731
X389275Y134669
X548525Y130169
X550100Y128200
X551675Y130169
X551675Y126231
X548525Y126231
X550075Y257131
X548500Y259100
X550075Y261069
X546925Y261069
X546925Y257131
X438375Y398931
X436800Y400900
X438375Y402869
X435225Y402869
X435225Y398931
X407175Y519531
X405600Y521500
X404025Y523469
X407175Y523469
X404025Y519531
X663643Y491839
X666792Y491839
X666792Y488769
X666792Y485698
X666792Y482627
X666792Y479556
X666792Y476485
X670808Y476485
X670808Y479556
X670808Y482627
X670808Y485698
X670808Y488769
X670808Y491839
X673957Y491839
X223175Y136269
X221600Y134300
X220025Y132331
X223175Y132331
X220025Y136269
T05
X663576Y444800
X668300Y444800
X673024Y444800
T06
X563800Y530800
X553800Y530800
T07
X529300Y529800
X512800Y529800
X514800Y459800
X461800Y459800
X407800Y459800
X323800Y459800
X267800Y459800
X181800Y459800
X126800Y459800
X47300Y459800
X43900Y338000
X127800Y332900
X198800Y332900
X284800Y332900
X355800Y332900
X441800Y331900
X509800Y331900
X578800Y331900
X699800Y378800
X662300Y201800
X563800Y201800
X462800Y201800
X391800Y201800
X295800Y201800
X228800Y201800
X143800Y201800
X46300Y261800
X143800Y78500
X232800Y50000
X307800Y78500
X394800Y50000
X471800Y78500
X555800Y50000
X649300Y68500
X43000Y55900
T08
X32961Y45861
X32961Y65939
X53039Y65939
X53039Y45861
X133761Y68461
X153839Y68461
X153839Y88539
X133761Y88539
X222761Y60039
X242839Y60039
X242839Y39961
X222761Y39961
X297761Y68461
X297761Y88539
X317839Y88539
X317839Y68461
X384761Y60039
X384761Y39961
X404839Y39961
X404839Y60039
X461761Y68461
X461761Y88539
X481839Y88539
X481839Y68461
X545761Y60039
X565839Y60039
X565839Y39961
X545761Y39961
X639261Y58461
X659339Y58461
X659339Y78539
X639261Y78539
X652261Y191761
X672339Y191761
X672339Y211839
X652261Y211839
X573839Y211839
X553761Y211839
X553761Y191761
X573839Y191761
X472839Y191761
X452761Y191761
X452761Y211839
X472839Y211839
X401839Y211839
X381761Y211839
X381761Y191761
X401839Y191761
X305839Y191761
X285761Y191761
X285761Y211839
X305839Y211839
X238839Y211839
X218761Y211839
X218761Y191761
X238839Y191761
X153839Y191761
X133761Y191761
X133761Y211839
X153839Y211839
X56339Y251761
X56339Y271839
X36261Y271839
X36261Y251761
X33861Y327961
X53939Y327961
X53939Y348039
X33861Y348039
X117761Y342939
X137839Y342939
X137839Y322861
X117761Y322861
X188761Y322861
X188761Y342939
X208839Y342939
X208839Y322861
X274761Y322861
X274761Y342939
X294839Y342939
X294839Y322861
X345761Y322861
X345761Y342939
X365839Y342939
X365839Y322861
X431761Y321861
X451839Y321861
X451839Y341939
X431761Y341939
X499761Y341939
X519839Y341939
X519839Y321861
X499761Y321861
X568761Y321861
X588839Y321861
X588839Y341939
X568761Y341939
X689761Y368761
X689761Y388839
X709839Y388839
X709839Y368761
X524839Y449761
X504761Y449761
X504761Y469839
X524839Y469839
X471839Y469839
X451761Y469839
X451761Y449761
X471839Y449761
X417839Y449761
X397761Y449761
X397761Y469839
X417839Y469839
X333839Y469839
X313761Y469839
X313761Y449761
X333839Y449761
X277839Y449761
X257761Y449761
X257761Y469839
X277839Y469839
X191839Y469839
X171761Y469839
X171761Y449761
X191839Y449761
X136839Y449761
X116761Y449761
X116761Y469839
X136839Y469839
X57339Y469839
X37261Y469839
X37261Y449761
X57339Y449761
M30
