%
M48
M72
T01C0.00800
T02C0.00984
T03C0.01000
T04C0.01181
T05C0.01575
T06C0.04000
T07C0.05000
T08C0.07000
%
T01
X693300Y488800
X703800Y490800
T02
X460781Y409426
X458419Y409426
X459600Y404800
X458419Y400174
X460781Y400174
X418981Y399274
X416619Y399274
X417800Y403900
X416619Y408526
X418981Y408526
X306481Y411326
X304119Y411326
X305300Y406700
X304119Y402074
X306481Y402074
X268981Y400274
X266619Y400274
X267800Y404900
X266619Y409526
X268981Y409526
X145181Y413426
X142819Y413426
X144000Y408800
X145181Y404174
X142819Y404174
X106981Y401274
X104619Y401274
X105800Y405900
X104619Y410526
X106981Y410526
X112619Y519174
X114981Y519174
X113800Y523800
X112619Y528426
X114981Y528426
X146619Y527926
X148981Y527926
X147800Y523300
X146619Y518674
X148981Y518674
X247719Y520074
X250081Y520074
X248900Y524700
X247719Y529326
X250081Y529326
X282119Y527526
X284481Y527526
X283300Y522900
X284481Y518274
X282119Y518274
X387019Y520674
X389381Y520674
X388200Y525300
X387019Y529926
X389381Y529926
X421919Y527626
X424281Y527626
X423100Y523000
X421919Y518374
X424281Y518374
X528519Y269526
X530881Y269526
X529700Y264900
X530881Y260274
X528519Y260274
X569519Y255874
X571881Y255874
X570700Y260500
X569519Y265126
X571881Y265126
X563281Y124626
X560919Y124626
X562100Y120000
X563281Y115374
X560919Y115374
X524281Y116874
X521919Y116874
X523100Y121500
X521919Y126126
X524281Y126126
X385981Y255574
X383619Y255574
X384800Y260200
X383619Y264826
X385981Y264826
X348881Y266526
X346519Y266526
X347700Y261900
X346519Y257274
X348881Y257274
X219481Y256674
X217119Y256674
X218300Y261300
X217119Y265926
X219481Y265926
X178881Y265726
X176519Y265726
X177700Y261100
X176519Y256474
X178881Y256474
X310719Y129826
X313081Y129826
X311900Y125200
X310719Y120574
X313081Y120574
X273981Y117874
X271619Y117874
X272800Y122500
X271619Y127126
X273981Y127126
T03
X301800Y116800
X301800Y106800
X307300Y101800
X312800Y106800
X321800Y117800
X324800Y123300
X324800Y127300
X326300Y158300
X316300Y158300
X306300Y158300
X296300Y158300
X286300Y158300
X276300Y158300
X266300Y158300
X256300Y158300
X246300Y158300
X236300Y158300
X226300Y158300
X216300Y158300
X206300Y158300
X196300Y158300
X186300Y158300
X176300Y158300
X163800Y158300
X153800Y158300
X143800Y158300
X133800Y158300
X123800Y158300
X113800Y158300
X103800Y158300
X93800Y158300
X83800Y158300
X73800Y158300
X63800Y158300
X53800Y158300
X43800Y158300
X33800Y158300
X85400Y198000
X77900Y205500
X85400Y213000
X77900Y220500
X85400Y228000
X92900Y220500
X100400Y213000
X107900Y220500
X100400Y228000
X92900Y235500
X85400Y243000
X77900Y235500
X77900Y250500
X85400Y258000
X92900Y250500
X100400Y258000
X92900Y265500
X107900Y265500
X107900Y250500
X100400Y243000
X107900Y235500
X92900Y205500
X156800Y229800
X157300Y234800
X162800Y234800
X167800Y234800
X173800Y234800
X174800Y229800
X180800Y238800
X180800Y219800
X195800Y213800
X202300Y219300
X207800Y213800
X212800Y240800
X207800Y245800
X207800Y255800
X217800Y245800
X230800Y252800
X231200Y259000
X231300Y263300
X231300Y300000
X241300Y300000
X251300Y300000
X261300Y300000
X271300Y300000
X281300Y300000
X291300Y300000
X301300Y300000
X311300Y300000
X321300Y300000
X331300Y300000
X341300Y300000
X351300Y300000
X361300Y300000
X371300Y300000
X381300Y300000
X391300Y300000
X401300Y300000
X411300Y300000
X421300Y300000
X431300Y300000
X441300Y300000
X451300Y300000
X461300Y300000
X471300Y300000
X481300Y300000
X491300Y300000
X501300Y300000
X511300Y300000
X521300Y300000
X531300Y300000
X541300Y300000
X551300Y300000
X561300Y300000
X571300Y300000
X581300Y300000
X591300Y300000
X601300Y300000
X611300Y300000
X631800Y312800
X637800Y318800
X627800Y328800
X621800Y322800
X619800Y338800
X611800Y338800
X611800Y350800
X619800Y350800
X621800Y362800
X627800Y368800
X621800Y374800
X627800Y378800
X633800Y378800
X627800Y387300
X627800Y391800
X627800Y399800
X635800Y396800
X645800Y396800
X649800Y390800
X653800Y386800
X649800Y382800
X653800Y378800
X649800Y374800
X653800Y370800
X649800Y366800
X645800Y360800
X645800Y351800
X655800Y360800
X665800Y360800
X671800Y366800
X671800Y374800
X671800Y382800
X671800Y390800
X665800Y396800
X655800Y396800
X657800Y430800
X657800Y434800
X657800Y438800
X661800Y438800
X661800Y434800
X661800Y430800
X665800Y430800
X669800Y430800
X673800Y430800
X677800Y430800
X681800Y430800
X685800Y430800
X689800Y430800
X693800Y430800
X687800Y434800
X683800Y434800
X679800Y434800
X675800Y434800
X677800Y438800
X681800Y438800
X685800Y438800
X689800Y438800
X691100Y444400
X701800Y444800
X709800Y450800
X717800Y444800
X709700Y472400
X682800Y472800
X682800Y469800
X679800Y454800
X673800Y438800
X657800Y453800
X651800Y450800
X642800Y461700
X641800Y476800
X631800Y488800
X625700Y493600
X631800Y498800
X647800Y506800
X647800Y512800
X647800Y518800
X655800Y506800
X667800Y508800
X655100Y492300
X657800Y475800
X625800Y482800
X613800Y490800
X605800Y480800
X597800Y490800
X589800Y500800
X569800Y500800
X561800Y463300
X561800Y456300
X571300Y455800
X577800Y448800
X585800Y452800
X593800Y444800
X601800Y436800
X593800Y432800
X601800Y424800
X609800Y426800
X609800Y414800
X601800Y414800
X613300Y402300
X604800Y398800
X615800Y391800
X615800Y387300
X615800Y380300
X603800Y380300
X603800Y387300
X591800Y387300
X591800Y380300
X582800Y374800
X574800Y374800
X574800Y362800
X582800Y362800
X582800Y350800
X574800Y350800
X550800Y341800
X536800Y341800
X536800Y321800
X550800Y321800
X613800Y366800
X635800Y360800
X636800Y351800
X636800Y342800
X639800Y336800
X646800Y342800
X654800Y334800
X647800Y328800
X655800Y320800
X662800Y326800
X670800Y318800
X663800Y312800
X671800Y304800
X678800Y310800
X687800Y301800
X680800Y295800
X689800Y286800
X696800Y292800
X705800Y283800
X709800Y279800
X698800Y277800
X700800Y269800
X710800Y269800
X710800Y259800
X700800Y259800
X700800Y249800
X700800Y239800
X710800Y239800
X710800Y249800
X710800Y229800
X700800Y229800
X700800Y219800
X710800Y219800
X710800Y209800
X700800Y209800
X700800Y199800
X700800Y189800
X710800Y189800
X710800Y199800
X710800Y179800
X700800Y179800
X700800Y170800
X700800Y161800
X710800Y161800
X710800Y170800
X710800Y152800
X700800Y152800
X700800Y143800
X700800Y134800
X710800Y134800
X710800Y143800
X710800Y125800
X710800Y116800
X700800Y116800
X700800Y125800
X700800Y107800
X710800Y107800
X710800Y98800
X700800Y98800
X700800Y87800
X709800Y87800
X709800Y75800
X701800Y75800
X656800Y69800
X649800Y75800
X642800Y69800
X619800Y69800
X612800Y75800
X605800Y69800
X606800Y38800
X612800Y32800
X621800Y32800
X627800Y38800
X642800Y38800
X649800Y32800
X659800Y32800
X665800Y38800
X675800Y38800
X681800Y33800
X688800Y38800
X574800Y110800
X574900Y118000
X574900Y122000
X561800Y103800
X555800Y99200
X549800Y103800
X550800Y113800
X518800Y94800
X504700Y90000
X504300Y85000
X498800Y90000
X493200Y90100
X487600Y90000
X486800Y86000
X518800Y78800
X499300Y43300
X448800Y39800
X441800Y32800
X435800Y39800
X425800Y38800
X418800Y32800
X408800Y32800
X401800Y38800
X386800Y38800
X379800Y32800
X369800Y32800
X362800Y38800
X362800Y70800
X369800Y76800
X376800Y70800
X401800Y69800
X408800Y75800
X415800Y69800
X416300Y158300
X426300Y158300
X436300Y158300
X446300Y158300
X456300Y158300
X466300Y158300
X476300Y158300
X486300Y158300
X496300Y158300
X506300Y158300
X516300Y158300
X526300Y158300
X536300Y158300
X546300Y158300
X556300Y158300
X566300Y158300
X576300Y158300
X586300Y158300
X596300Y158300
X606300Y158300
X616300Y158300
X626300Y158300
X636300Y158300
X646300Y158300
X656300Y158300
X666300Y158300
X676300Y158300
X632800Y189800
X625800Y185300
X618800Y189800
X606800Y191800
X599800Y199800
X592800Y191800
X585800Y196800
X592800Y210800
X585800Y214800
X606800Y210800
X565800Y238800
X559800Y243800
X559800Y254800
X571800Y243800
X577800Y252800
X583800Y258300
X583800Y262800
X527800Y236800
X512800Y235800
X512800Y230800
X506800Y235800
X501300Y235800
X495800Y235800
X494800Y230800
X526800Y221800
X531800Y214800
X537800Y220300
X543800Y214800
X513200Y192800
X498300Y189800
X490800Y183300
X483800Y189800
X434800Y191800
X427800Y199800
X419800Y191800
X419800Y210800
X434800Y210800
X383800Y242800
X378800Y238200
X373800Y242800
X375800Y253800
X397800Y251800
X397700Y258200
X397700Y262200
X345300Y236700
X339800Y233800
X339800Y228800
X333800Y233800
X327800Y233800
X322300Y233800
X321800Y228800
X345800Y217800
X359200Y213800
X365300Y218400
X371400Y213800
X339300Y191800
X326800Y191800
X320300Y185300
X313800Y191800
X336300Y158300
X346300Y158300
X356300Y158300
X366300Y158300
X376300Y158300
X386300Y158300
X396300Y158300
X406300Y158300
X269800Y191800
X262800Y199800
X255800Y191800
X255800Y210800
X270800Y210800
X177300Y191800
X270800Y91800
X255700Y86900
X254900Y81900
X249700Y86900
X244400Y87000
X239000Y86900
X237800Y82000
X265800Y73800
X248300Y44300
X196800Y39800
X189800Y33800
X182800Y39800
X172800Y39800
X165800Y33800
X156800Y33800
X149800Y39800
X133800Y39800
X126800Y33800
X115800Y33800
X108800Y39800
X108800Y71800
X115800Y77800
X122800Y71800
X149800Y70800
X156800Y76800
X163800Y70800
X158800Y300000
X148800Y300000
X138800Y300000
X128800Y300000
X118800Y300000
X108800Y300000
X98800Y300000
X88800Y300000
X78800Y300000
X68800Y300000
X58800Y300000
X48800Y300000
X38800Y300000
X28800Y300000
X81200Y335300
X99800Y361800
X88000Y369700
X85300Y374500
X91600Y374300
X103800Y375800
X78000Y374500
X70400Y374500
X68800Y369900
X134800Y391800
X139800Y387000
X144800Y391800
X134800Y400800
X156800Y399800
X156900Y406800
X156800Y410600
X158800Y428300
X148800Y428300
X138800Y428300
X128800Y428300
X118800Y428300
X108800Y428300
X98800Y428300
X88800Y428300
X78800Y428300
X68800Y428300
X58800Y428300
X48800Y428300
X38800Y428300
X28800Y428300
X85000Y457200
X102800Y479800
X90800Y488300
X92800Y494800
X84800Y494800
X77300Y494800
X69800Y494800
X70800Y488300
X100800Y494800
X107800Y493800
X138800Y506800
X143900Y501900
X148800Y506800
X160800Y513800
X160800Y521300
X160800Y525300
X140800Y517800
X145800Y468800
X154800Y468800
X163300Y468800
X163300Y450800
X154800Y450800
X145800Y450800
X171300Y428300
X181300Y428300
X191300Y428300
X201300Y428300
X211300Y428300
X221300Y428300
X231300Y428300
X241300Y428300
X251300Y428300
X261300Y428300
X271300Y428300
X281300Y428300
X291300Y428300
X301300Y428300
X311300Y428300
X321300Y428300
X331300Y428300
X341300Y428300
X351300Y428300
X361300Y428300
X371300Y428300
X381300Y428300
X391300Y428300
X401300Y428300
X411300Y428300
X421300Y428300
X431300Y428300
X441300Y428300
X451300Y428300
X461300Y428300
X471300Y428300
X481300Y428300
X491300Y428300
X501300Y428300
X511300Y428300
X521300Y428300
X531300Y428300
X541300Y428300
X551300Y428300
X561300Y428300
X585800Y440800
X575800Y462300
X549800Y463300
X549800Y456300
X537800Y456300
X537800Y463300
X496800Y468800
X488800Y468800
X479800Y468800
X479800Y450800
X488800Y450800
X496800Y450800
X443800Y450800
X434800Y450800
X426800Y450800
X425800Y468800
X434800Y468800
X443800Y468800
X420200Y501800
X415900Y505600
X424700Y505500
X435800Y513800
X436000Y520600
X436000Y525000
X411300Y513100
X385800Y496800
X374000Y494600
X368900Y494600
X363400Y494400
X357800Y494600
X351300Y494800
X350800Y488300
X370200Y488400
X382800Y479800
X364700Y457200
X304300Y450800
X295300Y450800
X286300Y450800
X285800Y468800
X295300Y468800
X304300Y468800
X278800Y501800
X274700Y505900
X283800Y506100
X296800Y512800
X296300Y520800
X296300Y524800
X272800Y512800
X245800Y496800
X233100Y494600
X228000Y494700
X222400Y494700
X216800Y494800
X211300Y494800
X210800Y488300
X230100Y488600
X245800Y482800
X221600Y457300
X294200Y397500
X294800Y391800
X299800Y386300
X305800Y391800
X315800Y398800
X318200Y408700
X263800Y374800
X250000Y373000
X246900Y367900
X243200Y373100
X236300Y373100
X229400Y373000
X227800Y367900
X259800Y359800
X239700Y330300
X221300Y300000
X211300Y300000
X201300Y300000
X191300Y300000
X181300Y300000
X171300Y300000
X170800Y322800
X163800Y330800
X156800Y322800
X156800Y342800
X170800Y342800
X313800Y342800
X321800Y330800
X328800Y322800
X313800Y322800
X328800Y342800
X382800Y367900
X384300Y373400
X391100Y373500
X397700Y373500
X403900Y373500
X401900Y367900
X413800Y359800
X417800Y374800
X448800Y388800
X453800Y382800
X458800Y388800
X448800Y396800
X472800Y395800
X472500Y402800
X472500Y406800
X468800Y341800
X476300Y330300
X468800Y321800
X483800Y321800
X483800Y341800
X397600Y330700
X578800Y386800
X647800Y308800
X641800Y302800
X651800Y292800
X657800Y298800
X666800Y287800
X657800Y282800
X657800Y270800
X666800Y270800
X666800Y258800
X657800Y258800
X657800Y246800
X666800Y246800
X666800Y234800
X657800Y234800
X657800Y222800
X666800Y222800
X707800Y498800
X667800Y532800
X667800Y540800
X659800Y544800
T04
X663643Y491839
X666792Y491839
X666792Y488769
X666792Y485698
X666792Y482627
X666792Y479556
X666792Y476485
X670808Y476485
X670808Y479556
X670808Y482627
X670808Y485698
X670808Y488769
X670808Y491839
X673957Y491839
X438375Y402869
X436800Y400900
X435225Y402869
X435225Y398931
X438375Y398931
X285375Y400931
X283800Y402900
X285375Y404869
X282225Y404869
X282225Y400931
X267475Y519731
X265900Y521700
X264325Y519731
X264325Y523669
X267475Y523669
X404025Y523469
X405600Y521500
X407175Y519531
X404025Y519531
X407175Y523469
X132375Y523769
X130800Y521800
X132375Y519831
X129225Y519831
X129225Y523769
X126375Y406869
X124800Y404900
X123225Y402931
X126375Y402931
X123225Y406869
X196125Y262069
X197700Y260100
X199275Y258131
X196125Y258131
X199275Y262069
X363125Y260869
X364700Y258900
X366275Y260869
X366275Y256931
X363125Y256931
X293175Y123269
X291600Y121300
X293175Y119331
X290025Y119331
X290025Y123269
X538125Y120669
X539700Y118700
X541275Y120669
X541275Y116731
X538125Y116731
X546925Y257131
X548500Y259100
X546925Y261069
X550075Y261069
X550075Y257131
T05
X663576Y444800
X668300Y444800
X673024Y444800
T06
X563800Y530800
X553800Y530800
T07
X529300Y529800
X512800Y529800
X514800Y459800
X461800Y459800
X407800Y459800
X323800Y459800
X267800Y459800
X181800Y459800
X126800Y459800
X47300Y459800
X43900Y338000
X127800Y332900
X198800Y332900
X284800Y332900
X355800Y332900
X441800Y331900
X509800Y331900
X578800Y331900
X699800Y378800
X662300Y201800
X563800Y201800
X462800Y201800
X391800Y201800
X295800Y201800
X228800Y201800
X143800Y201800
X46300Y261800
X43000Y55900
X214800Y55500
X300800Y55000
X465800Y55000
X547800Y55000
X705800Y55000
T08
X32961Y45861
X32961Y65939
X53039Y65939
X53039Y45861
X204761Y45461
X204761Y65539
X224839Y65539
X224839Y45461
X290761Y44961
X310839Y44961
X310839Y65039
X290761Y65039
X455761Y65039
X455761Y44961
X475839Y44961
X475839Y65039
X537761Y65039
X537761Y44961
X557839Y44961
X557839Y65039
X695761Y65039
X695761Y44961
X715839Y44961
X715839Y65039
X672339Y191761
X652261Y191761
X652261Y211839
X672339Y211839
X573839Y211839
X553761Y211839
X553761Y191761
X573839Y191761
X472839Y191761
X452761Y191761
X452761Y211839
X472839Y211839
X401839Y211839
X381761Y211839
X381761Y191761
X401839Y191761
X305839Y191761
X285761Y191761
X285761Y211839
X305839Y211839
X238839Y211839
X218761Y211839
X218761Y191761
X238839Y191761
X153839Y191761
X133761Y191761
X133761Y211839
X153839Y211839
X56339Y251761
X56339Y271839
X36261Y271839
X36261Y251761
X33861Y327961
X53939Y327961
X53939Y348039
X33861Y348039
X117761Y342939
X117761Y322861
X137839Y322861
X137839Y342939
X188761Y342939
X188761Y322861
X208839Y322861
X208839Y342939
X274761Y342939
X294839Y342939
X294839Y322861
X274761Y322861
X345761Y322861
X345761Y342939
X365839Y342939
X365839Y322861
X431761Y321861
X451839Y321861
X451839Y341939
X431761Y341939
X499761Y341939
X519839Y341939
X519839Y321861
X499761Y321861
X568761Y321861
X588839Y321861
X588839Y341939
X568761Y341939
X689761Y368761
X689761Y388839
X709839Y388839
X709839Y368761
X524839Y449761
X504761Y449761
X504761Y469839
X524839Y469839
X471839Y469839
X451761Y469839
X451761Y449761
X471839Y449761
X417839Y449761
X397761Y449761
X397761Y469839
X417839Y469839
X333839Y469839
X313761Y469839
X313761Y449761
X333839Y449761
X277839Y449761
X257761Y449761
X257761Y469839
X277839Y469839
X191839Y469839
X171761Y469839
X171761Y449761
X191839Y449761
X136839Y449761
X116761Y449761
X116761Y469839
X136839Y469839
X57339Y469839
X37261Y469839
X37261Y449761
X57339Y449761
M30
